<?xml version="1.0" encoding="utf-8"?>
<!-- Generator: Adobe Illustrator 27.8.0, SVG Export Plug-In . SVG Version: 6.00 Build 0)  -->
<svg version="1.1" id="Layer_1" xmlns="http://www.w3.org/2000/svg" xmlns:xlink="http://www.w3.org/1999/xlink" x="0px" y="0px"
	 width="2267px" height="1538px" viewBox="0 0 2267 1538" style="enable-background:new 0 0 2267 1538;" xml:space="preserve">
<style type="text/css">
	.st0{opacity:0.02;}
	.st1{fill:#fff;}
</style>
<g class="st0">
	<g>
		<path class="st1" d="M722.9,243.8c12.2,0,38.3-0.8,66.8-10.6c67.6-22.8,91.2-78.2,91.2-131.9c0-42.3-13.8-87.1-56.2-116.5
			c-35.8-24.4-73.3-27.7-114.8-27.7h-78.2v522.5c-19-3.5-37.8-5.4-55.6-5.4c-11.4,0-22.1,0.7-32.3,2L328-59.1L104.8,486.5H21.5
			L-38.8-61.5l-235.3,502.5L-509.5-61.5l-60.4,548.1H-582v543.2h16.3V1559h107.5c48,0,131.9-7.3,200.3-75.7
			c57.8-57.8,78.2-136,78.2-195.4c0-59.4-20.4-138.4-78.2-196.3c-33.3-33.3-70.2-52.1-104.9-62.6c82.2-5.6,146.7-41.8,186.3-81.5
			c52.9-52.9,70.8-116.5,70.8-188.1c0-58.6-12.2-136.8-75.7-197.9c-26.9-25.9-56.9-43-86.7-54.2C-233.2,433.7-60.8,63.9-60.8,63.9
			L-14,489.3v526.6h-53.6V1559H193v-32.6H-31.7v-248.4h219.9v-32.6H-31.7v-197.1H193v-18.7h69L455.8,1581l189.1-551.4
			c24.8-8.3,48.2-21.7,69.6-43.1c39.1-39.1,51.3-87.1,51.3-136.8c0-37.5-7.3-67.6-35-96.9c-28.5-30.9-64.3-43.2-98.5-53.7l-43.2-13
			c-33.4-9.8-43.2-19.5-47.2-24.4c-5.7-7.3-7.3-14.7-7.3-24.4c0-12.2,5.7-21.2,13.8-29.3c13.8-13,32.6-16.3,46.4-16.3
			c18.7,0,50.5,3.3,92.8,36.6l56.2-109.9c-23.7-12.4-49.8-22.7-76.3-30.2V243.8h16.3l173.9,253.7v518.3H727.3V1559h260.6v-32.6
			H763.1v-248.4H983v-32.6H763.1v-197.1h224.8v-18.7h10.7V486.5H890.9L722.9,243.8z M-487.5,63.9l205.1,438.4
			c-42.9-13.5-84.5-15.8-114.7-15.8h-136.9L-487.5,63.9z M-217.2,1287.8c0,140.9-98.5,238.6-241.9,238.6h-70.8v-478h70.8
			C-316.5,1048.4-217.2,1148.6-217.2,1287.8z M-252.2,759.3c0,60.3-23.6,94.5-41.5,111.6c-36.6,35.8-84.7,39.1-118.9,39.1h-28.5
			V606.2h34.2c35,0,79,3.3,112.4,34.2C-267.7,665.7-252.2,708.8-252.2,759.3z M327.1,32.1l101.8,257.3H223.7L327.1,32.1z M603,836.7
			c11.4,9.8,15.5,22,15.5,32.6c0,13.8-5.7,26.1-13.8,34.2c-9,9.8-26.1,18.7-54.6,18.7c-48.9,0-94.5-26.9-124.6-55.4l-60.3,114
			c39.1,26.9,73.3,39.9,82.2,43.2c39.9,14.7,72.5,17.9,106.7,17.9c16.4,0,32.7-0.7,48.7-2.8l-147,439.3l-159.6-462.6h-1.5V910H126.9
			v-93.7h158.8V696.6H126.9v-90.4h167.8V486.5H143.8L210.7,322H442l65.8,162c-30.6,9.4-54.1,24.8-71,41.6
			c-23.6,23.6-49.7,64.3-49.7,131.1c0,27.7,3.3,66,30.9,96.1c22,24.4,55.4,36.6,78.2,44l36.6,11.4
			C567.9,818.8,589.1,824.5,603,836.7z M667.5,211.3V-10.2h44.8c21.2,0,60.3,3.3,83.1,16.3c21.2,11.4,48,39.9,48,94.5
			c0,70-46.4,110.8-123.8,110.8H667.5z M2400.9,509.3c58.6,0,125.4-18.7,180.8-67.6v-47.2c-55.4,60.3-127.9,82.2-182.4,82.2
			c-109.9,0-244.3-83.9-244.3-245.1c0-137.6,104.2-249.2,243.5-249.2c70,0,136.8,30.9,183.2,85.5V20.7
			c-16.3-15.5-79-70.8-182.4-70.8c-156.4,0-281.8,123.8-281.8,280.1C2117.5,381.5,2238,509.3,2400.9,509.3z M3135.5,418.1
			c44.8-57,55.4-128.7,55.4-178.3h-228v32.6H3155c-1.6,35-14.7,79.8-35.8,112.4c-29.3,44.8-96.1,92-188.9,92
			c-140.1,0-242.7-109.1-242.7-245.1c0-138.4,105.9-249.2,245.1-249.2c67.6,0,121.3,28.5,155.5,57c14.7,12.2,36.6,34.2,52.1,60.3
			l28.5-22.8c-22-30.9-42.3-50.5-65.1-68.4c-42.3-32.6-93.7-58.6-170.2-58.6c-158,0-283.4,118.9-283.4,280.1
			c0,162.1,121.3,279.3,281,279.3C3014.2,509.3,3087.5,479.2,3135.5,418.1z M3636.9,436c27.7-40.7,30.9-79.8,30.9-139.3V-42.8H3632
			v339.6c0,51.3-2.4,84.7-22.8,117.3c-31.8,51.3-91.2,62.7-126.2,62.7c-35,0-94.5-11.4-126.2-62.7c-20.4-32.6-22.8-66-22.8-117.3
			V-42.8h-35.8v339.6c0,59.4,3.3,98.5,30.9,139.3c40.7,59.4,105.1,73.3,153.9,73.3C3531.8,509.3,3596.2,495.5,3636.9,436z
			 M3846.3-42.8h-35.8v543.2h35.8V-42.8z M4271,272.3h192.2c-1.6,35-14.7,79.8-35.8,112.4c-29.3,44.8-96.1,92-188.9,92
			c-140.1,0-242.7-109.1-242.7-245.1c0-138.4,105.9-249.2,245.1-249.2c67.6,0,121.3,28.5,155.5,57c14.7,12.2,36.6,34.2,52.1,60.3
			l28.5-22.8c-22-30.9-42.3-50.5-65.1-68.4c-42.3-32.6-93.7-58.6-170.2-58.6c-158,0-283.4,118.9-283.4,280.1
			c0,162.1,121.3,279.3,281,279.3c83.1,0,156.4-30.1,204.4-91.2c44.8-57,55.4-128.7,55.4-178.3h-228V272.3z M4524.1,500.4h39.1
			l72.5-178.3H4867l72.5,178.3h39.1L4753-59.1L4524.1,500.4z M4648.7,289.4l103.4-257.3l101.8,257.3H4648.7z M5512.8-42.8v471.5
			l-456-477.2v548.9h35.8V37l456,477.2v-557H5512.8z M2283.6,1029.7V486.5h-140.9v332.3L1883,486.5h-137.5
			c49.5-105.2,197.5-422.6,197.5-422.6l48,436.5h35.8l-61.9-561.9l-235.3,502.5L1494.2-61.5l-59.5,540.2c-18-2.9-36.2-4.3-53.9-4.3
			c-16.2,0-31.7,1-46.5,2.9L1078.6,217l263-259.8h-47.2l-256.5,255.7V-42.8h-35.8v543.2h35.8V255.2l14.7-13.8l240.6,243.7
			c-52.4,13.7-93.5,39.2-123.3,69c-47.2,46.4-81.4,117.3-81.4,203.6c0,89.6,37.5,155.5,78.2,196.3c44,44.8,110.8,80.6,208.5,80.6
			c69.2,0,134.4-15.5,191.4-68.4c65.1-60.3,87.1-136.8,87.1-244.3h-280.1v109.9h115.6c-4.9,30.1-20.4,49.7-33.4,60.3
			c-25.2,21.2-53.7,25.2-78.2,25.2c-41.5,0-73.3-13.8-99.4-41.5c-25.2-26.9-43.2-67.6-43.2-117.3c0-42.3,15.5-92.8,47.2-124.6
			c25.2-25.2,59.4-37.5,92.8-37.5c26.9,0,52.1,7.3,75.7,26.9c13.8,11.4,29.3,29.3,39.1,54.6l134.4-55.4
			c-19.5-42.3-54.6-85.5-96.9-111.6c-17.4-10.6-37.1-18.7-57.7-24.6l46.5-422.5l213.4,456c0.1,0,4.7-9.7,12.5-26.2v536H1883V697.4
			l259.8,332.3H2283.6z M1125.4,1015.8h-35.8V1559h187.3v-32.6h-151.5V1015.8z M1566.3,1008.5c-158.8,0-281.8,123.8-281.8,280.1
			s122.2,279.3,281.8,279.3c158.8,0,281.8-123,281.8-279.3S1725.1,1008.5,1566.3,1008.5z M1566.3,1535.4
			c-140.1,0-244.3-108.3-244.3-246.7c0-139.3,104.2-247.6,244.3-247.6s244.3,108.3,244.3,247.6
			C1810.6,1427.1,1706.3,1535.4,1566.3,1535.4z M2066.1,1015.8H1961V1559h35.8v-258.1h70c93.7,0,158-52.9,158-143.3
			C2224.9,1064.7,2154.9,1015.8,2066.1,1015.8z M2068.5,1268.3h-71.7v-219.9h66c79,0,124.6,42.3,124.6,109.9
			C2187.4,1226.8,2139.4,1268.3,2068.5,1268.3z M2580.6,1499.6l-235.3-502.5l-61.9,561.9h35.8l48-436.5l213.4,456
			c0.8,0,213.4-456,213.4-456l48,436.5h35.8L2816,997.1L2580.6,1499.6z M3006.5,1559h260.6v-32.6h-224.8v-248.4h219.9v-32.6h-219.9
			v-197.1h224.8v-32.6h-260.6V1559z M3824.8,1487.3l-456-477.2V1559h35.8v-463.4l456,477.2v-557h-35.8V1487.3z M3938.8,1048.4h140.9
			V1559h35.8v-510.6h140.9v-32.6h-317.6V1048.4z"/>
	</g>
</g>
</svg>
