<?xml version="1.0" encoding="utf-8"?>
<!-- Generator: Adobe Illustrator 27.9.0, SVG Export Plug-In . SVG Version: 6.00 Build 0)  -->
<svg version="1.1" id="Layer_1" xmlns="http://www.w3.org/2000/svg" xmlns:xlink="http://www.w3.org/1999/xlink" x="0px" y="0px"
	 width="1920px" height="1080px" viewBox="0 0 1920 1080" style="enable-background:new 0 0 1920 1080;" xml:space="preserve">
<style type="text/css">
	.st0{fill:url(#SVGID_1_);}
	.st1{fill:url(#SVGID_00000035492725857040184230000005888787928029999266_);}
	.st2{fill:url(#SVGID_00000168077926504898997300000003960092708158135691_);}
	.st3{display:none;fill:#DA5A6E;}
	.st4{display:none;}
	.st5{display:inline;fill:url(#SVGID_00000083769709021480559310000001077964810465922191_);}
	.st6{display:inline;fill:url(#SVGID_00000082367968393603811320000007448797321507591335_);}
	.st7{display:inline;fill:url(#SVGID_00000168831239396706360340000009530247702927726992_);}
	.st8{fill:#6F0991;}
	.st9{fill:#5B0075;}
	.st10{fill:url(#SVGID_00000174591552835195549260000004576677926225768334_);}
	.st11{fill:url(#SVGID_00000145742348964209428880000010017410534357918884_);}
	.st12{fill:url(#SVGID_00000046312310019795484660000014737352705619834528_);}
	.st13{fill:url(#SVGID_00000007429194212279136300000017775404681260374459_);}
</style>
<g id="BACKGROUND">
</g>
<linearGradient id="SVGID_1_" gradientUnits="userSpaceOnUse" x1="1654.075" y1="21.4" x2="1707.7251" y2="21.4">
	<stop  offset="0" style="stop-color:#43035A"/>
	<stop  offset="0.3819" style="stop-color:#4C0269"/>
	<stop  offset="1" style="stop-color:#59007E"/>
</linearGradient>
<path class="st0" d="M1654.8,48l-0.5-0.5c-0.3-0.3-0.3-0.7,0-0.9l51.8-51.8c0.3-0.3,0.7-0.3,0.9,0l0.5,0.5c0.3,0.3,0.3,0.7,0,0.9
	L1655.7,48C1655.5,48.3,1655.1,48.3,1654.8,48z"/>
<linearGradient id="SVGID_00000171700199399280110230000006824288843597668757_" gradientUnits="userSpaceOnUse" x1="1638.075" y1="75.1" x2="1691.7251" y2="75.1">
	<stop  offset="0" style="stop-color:#43035A"/>
	<stop  offset="0.3819" style="stop-color:#4C0269"/>
	<stop  offset="1" style="stop-color:#59007E"/>
</linearGradient>
<path style="fill:url(#SVGID_00000171700199399280110230000006824288843597668757_);" d="M1638.8,101.7l-0.5-0.5
	c-0.3-0.3-0.3-0.7,0-0.9l51.8-51.8c0.3-0.3,0.7-0.3,0.9,0l0.5,0.5c0.3,0.3,0.3,0.7,0,0.9l-51.8,51.8
	C1639.5,102,1639.1,102,1638.8,101.7z"/>
<linearGradient id="SVGID_00000002380797854338328440000008912767738112245149_" gradientUnits="userSpaceOnUse" x1="1488.7749" y1="98.5" x2="1542.425" y2="98.5">
	<stop  offset="0" style="stop-color:#43035A"/>
	<stop  offset="0.3819" style="stop-color:#4C0269"/>
	<stop  offset="1" style="stop-color:#59007E"/>
</linearGradient>
<path style="fill:url(#SVGID_00000002380797854338328440000008912767738112245149_);" d="M1489.5,125.1l-0.5-0.5
	c-0.3-0.3-0.3-0.7,0-0.9l51.8-51.8c0.3-0.3,0.7-0.3,0.9,0l0.5,0.5c0.3,0.3,0.3,0.7,0,0.9l-51.8,51.8
	C1490.1,125.4,1489.7,125.4,1489.5,125.1z"/>
<path class="st3" d="M1008.9,448.9c0-2.8-2.2-5-5-5s-5,2.2-5,5s2.2,5,5,5S1008.9,451.7,1008.9,448.9z"/>
<g class="st4">
	
		<linearGradient id="SVGID_00000066478701146336868780000010047778578906566551_" gradientUnits="userSpaceOnUse" x1="432.4553" y1="1463.6808" x2="576.1671" y2="1463.6808" gradientTransform="matrix(-0.6032 0.7976 -0.7976 -0.6032 2544.1924 1186.5187)">
		<stop  offset="0" style="stop-color:#AB76E1"/>
		<stop  offset="1" style="stop-color:#DA5A6E"/>
	</linearGradient>
	<path style="display:inline;fill:url(#SVGID_00000066478701146336868780000010047778578906566551_);" d="M1158.6,726.1h-7
		c0.1-22.1-8.4-43-24-58.7s-36.3-24.4-58.4-24.6c-0.1,0-0.3,0-0.4,0c-45.5,0-82.6,36.9-82.8,82.4h-7c0.3-49.4,40.5-89.4,89.8-89.4
		c0.2,0,0.3,0,0.5,0c24,0.1,46.5,9.6,63.4,26.6S1158.7,702.2,1158.6,726.1z"/>
	
		<linearGradient id="SVGID_00000083077214657310741930000002090810595760779407_" gradientUnits="userSpaceOnUse" x1="471.2046" y1="1459.9746" x2="553.2245" y2="1459.9746" gradientTransform="matrix(-0.6032 0.7976 -0.7976 -0.6032 2544.1924 1186.5187)">
		<stop  offset="0" style="stop-color:#AB76E1"/>
		<stop  offset="1" style="stop-color:#DA5A6E"/>
	</linearGradient>
	<path style="display:inline;fill:url(#SVGID_00000083077214657310741930000002090810595760779407_);" d="M1120,725.9h-2
		c0.1-13.2-5-25.6-14.3-34.9c-9.3-9.4-21.6-14.5-34.8-14.6c-0.1,0-0.2,0-0.3,0c-27.1,0-49.1,21.9-49.3,49h-2
		c0.1-13.7,5.5-26.5,15.2-36.2c9.7-9.6,22.5-14.8,36.1-14.8c0.1,0,0.2,0,0.3,0c13.7,0.1,26.5,5.5,36.2,15.2
		C1114.8,699.3,1120.1,712.3,1120,725.9z"/>
	
		<linearGradient id="SVGID_00000134940447830619636910000001982856661747699381_" gradientUnits="userSpaceOnUse" x1="497.8853" y1="1457.188" x2="537.0697" y2="1457.188" gradientTransform="matrix(-0.6032 0.7976 -0.7976 -0.6032 2544.1924 1186.5187)">
		<stop  offset="0" style="stop-color:#AB76E1"/>
		<stop  offset="1" style="stop-color:#DA5A6E"/>
	</linearGradient>
	<path style="display:inline;fill:url(#SVGID_00000134940447830619636910000001982856661747699381_);" d="M1093.3,725.8h-2
		c0-6-2.3-11.7-6.5-16s-9.9-6.6-15.9-6.7h-0.1c-6,0-11.6,2.3-15.8,6.5c-4.3,4.2-6.6,9.9-6.7,15.9h-2c0-6.5,2.6-12.7,7.3-17.3
		c4.6-4.6,10.7-7.1,17.2-7.1h0.1c6.5,0,12.7,2.6,17.3,7.3C1090.8,713.1,1093.3,719.3,1093.3,725.8z"/>
</g>
<path class="st8" d="M248.1-301.4l23.2-14.9l1.4,27.5L248.1-301.4z M266.6-307.4l-8.5,5.6l9.1,4.7L266.6-307.4z"/>
<polygon class="st8" points="100,321 115.8,310.7 116.9,329.5 "/>
<path class="st9" d="M1919.2,922.2l-4.7,27.2l-21.2-17.6L1919.2,922.2z M1911.1,939.9l1.7-10.1l-9.6,3.5L1911.1,939.9z"/>
<path class="st9" d="M1214.9,513.3l-31.1,8.8l7.9-31.3L1214.9,513.3z M1190.8,514.9l14.5-4l-10.8-10.5L1190.8,514.9z"/>
<path class="st9" d="M1776.7,803.4l-43.3,34.4l-8.2-54.7L1776.7,803.4z M1737.1,828.5l29.7-23.7l-35.4-13.9L1737.1,828.5z"/>
<polygon class="st9" points="1384.4,992.9 1387.8,1003.2 1377.5,1006.6 1380.7,1016.2 1391,1012.8 1394.4,1023.1 1404.1,1020 
	1400.7,1009.7 1411,1006.2 1407.8,996.6 1397.5,1000 1394,989.7 "/>
<linearGradient id="SVGID_00000040560663773096835190000016782911955248588430_" gradientUnits="userSpaceOnUse" x1="617.6868" y1="-404.15" x2="755.3867" y2="-404.15">
	<stop  offset="0" style="stop-color:#43035A"/>
	<stop  offset="0.3819" style="stop-color:#4C0269"/>
	<stop  offset="1" style="stop-color:#59007E"/>
</linearGradient>
<path style="fill:url(#SVGID_00000040560663773096835190000016782911955248588430_);" d="M619.4-335.9l-1.3-1.3
	c-0.8-0.8-0.8-1.8,0-2.3L751-472.4c0.8-0.8,1.8-0.8,2.3,0l1.3,1.3c0.8,0.8,0.8,1.8,0,2.3L621.7-335.9
	C621.2-335.1,620.2-335.1,619.4-335.9z"/>
<linearGradient id="SVGID_00000029006631655825304830000010548541316933498027_" gradientUnits="userSpaceOnUse" x1="611.8" y1="-323.85" x2="749.5" y2="-323.85">
	<stop  offset="0" style="stop-color:#43035A"/>
	<stop  offset="0.3819" style="stop-color:#4C0269"/>
	<stop  offset="1" style="stop-color:#59007E"/>
</linearGradient>
<path style="fill:url(#SVGID_00000029006631655825304830000010548541316933498027_);" d="M613.7-255.6l-1.3-1.3
	c-0.8-0.8-0.8-1.8,0-2.3l132.9-132.9c0.8-0.8,1.8-0.8,2.3,0l1.3,1.3c0.8,0.8,0.8,1.8,0,2.3L616-255.6
	C615.5-254.8,614.5-254.8,613.7-255.6z"/>
<linearGradient id="SVGID_00000040572443591663706030000014476392094082594969_" gradientUnits="userSpaceOnUse" x1="228.8" y1="-263.8" x2="366.4999" y2="-263.8">
	<stop  offset="0" style="stop-color:#43035A"/>
	<stop  offset="0.3819" style="stop-color:#4C0269"/>
	<stop  offset="1" style="stop-color:#59007E"/>
</linearGradient>
<path style="fill:url(#SVGID_00000040572443591663706030000014476392094082594969_);" d="M230.7-195.6l-1.3-1.3
	c-0.8-0.8-0.8-1.8,0-2.3L362.3-332c0.8-0.8,1.8-0.8,2.3,0l1.3,1.3c0.8,0.8,0.8,1.8,0,2.3L233-195.6
	C232.3-194.8,231.3-194.8,230.7-195.6z"/>
<polygon class="st9" points="255.7,111.8 259.1,122.1 248.8,125.5 252,135.1 262.3,131.7 265.7,142 275.4,138.9 272,128.5 
	282.3,125.1 279.1,115.5 268.8,118.9 265.4,108.6 "/>
<linearGradient id="SVGID_00000156575579892099583860000008383221836379626887_" gradientUnits="userSpaceOnUse" x1="1659.7" y1="167.45" x2="1797.4001" y2="167.45">
	<stop  offset="0" style="stop-color:#43035A"/>
	<stop  offset="0.3819" style="stop-color:#4C0269"/>
	<stop  offset="1" style="stop-color:#59007E"/>
</linearGradient>
<path style="fill:url(#SVGID_00000156575579892099583860000008383221836379626887_);" d="M1661.6,235.7l-1.3-1.3
	c-0.8-0.8-0.8-1.8,0-2.3l132.9-132.9c0.8-0.8,1.8-0.8,2.3,0l1.3,1.3c0.8,0.8,0.8,1.8,0,2.3l-132.9,132.9
	C1663.4,236.5,1662.3,236.5,1661.6,235.7z"/>
<path class="st8" d="M834.9,895.6l21.6,30.4l-37.1,3.5L834.9,895.6z M850.3,923.1l-14.9-20.9l-10.6,23.3L850.3,923.1z"/>
<polygon class="st8" points="939.3,139 950.5,131.6 951.3,145.1 "/>
<path class="st9" d="M104.5,913.6l-4.7,27.2l-21.2-17.6L104.5,913.6z M96.4,931.3l1.7-10.1l-9.6,3.5L96.4,931.3z"/>
</svg>
