<?xml version="1.0" encoding="utf-8"?>
<!-- Generator: Adobe Illustrator 27.9.0, SVG Export Plug-In . SVG Version: 6.00 Build 0)  -->
<svg version="1.1" id="Layer_1" xmlns="http://www.w3.org/2000/svg" xmlns:xlink="http://www.w3.org/1999/xlink" x="0px" y="0px"
	 width="1117px" height="546px" viewBox="0 0 1117 546" style="enable-background:new 0 0 1117 546;" xml:space="preserve">
<style type="text/css">
	.st0{fill:url(#SVGID_1_);}
	.st1{opacity:0.24;}
	.st2{fill:url(#SVGID_00000146487330205458067100000009357892027649735096_);}
	.st3{fill:url(#SVGID_00000053536885333477825090000000004813693006823077_);}
	.st4{fill:url(#SVGID_00000164496372349985447400000006479377653604701094_);}
	.st5{fill:url(#SVGID_00000048472439176539762400000010143886453956498838_);}
	.st6{fill:url(#SVGID_00000178908447525387141110000003312985785776926879_);}
	.st7{fill:url(#SVGID_00000076600878253916276490000005729018843795475620_);}
	.st8{fill:#5B0075;}
	.st9{fill:#6F0991;}
</style>
<linearGradient id="SVGID_1_" gradientUnits="userSpaceOnUse" x1="1427.5365" y1="-812.0496" x2="1698.8979" y2="-540.6886" gradientTransform="matrix(-0.7887 0.6148 0.6148 0.7887 2096.0632 233.4413)">
	<stop  offset="0" style="stop-color:#E9B5CD"/>
	<stop  offset="1" style="stop-color:#FFFFFF"/>
</linearGradient>
<path class="st0" d="M285.1,576.8L405,483.4c24.1-18.9,57.5-20,82.9-2.9l126,85c25.4,17.2,36.9,48.4,28.1,78l-42.1,146
	c-4.1,14.5-12.5,27-24.5,36.1c-11.9,9.4-26.1,14.5-41,14.9l-151.7,5.1c-30.7,1-58.1-17.6-68.6-46.4l-51.9-142.6
	C251.8,627.6,260.8,595.7,285.1,576.8z M565.3,812.7c9.1-7,15.6-16.5,18.6-27.6L626,639c6.5-22.6-2.1-46.5-21.6-59.6l-126-85
	c-19.5-13.3-45-12.4-63.5,2.1L295,590c-18.6,14.5-25.6,38.9-17.5,61l51.9,142.6c7.9,22.1,29.1,36.4,52.6,35.6l151.7-5.1
	C545.3,823.6,556.3,819.7,565.3,812.7z"/>
<g class="st1">
	
		<linearGradient id="SVGID_00000126308658102340975380000018036805547805095298_" gradientUnits="userSpaceOnUse" x1="-37.3102" y1="-801.3751" x2="939.8416" y2="-733.046" gradientTransform="matrix(1 0 0 -1 0 14)">
		<stop  offset="0" style="stop-color:#DA5A6E"/>
		<stop  offset="1" style="stop-color:#AB76E1"/>
	</linearGradient>
	<path style="fill:url(#SVGID_00000126308658102340975380000018036805547805095298_);" d="M451.3,1271.1
		c-66.1,0-130.3-13-190.6-38.4c-58.3-24.8-110.7-60-155.7-105c-45-45-80.2-97.4-105-155.7c-25.4-60.4-38.4-124.5-38.4-190.6
		s13-130.3,38.4-190.6C24.8,532.5,60,480,105,435.1s97.4-80.2,155.7-105c60.4-25.9,124.5-38.8,190.6-38.8s130.3,13,190.6,38.4
		c58.3,24.8,110.7,60,155.7,105c45,45,80.2,97.4,105,155.7C928,650.8,941,715,941,781.1s-13,130.3-38.4,190.6
		c-24.8,58.3-60,110.7-105,155.7c-45,45-97.4,80.2-155.7,105C581.5,1258.1,517.5,1271.1,451.3,1271.1z M451.3,292.1
		c-65.9,0-130.1,13-190.5,38.4c-58.3,24.8-110.6,59.9-155.5,104.8S25.1,532.6,0.5,590.9C-25,651.3-38,715.1-38,781.4
		c0,65.9,13,130.1,38.4,190.5c24.8,58.3,59.9,110.6,104.8,155.5s97.2,80.2,155.5,104.8c60.4,25.4,124.2,38.4,190.5,38.4
		c65.9,0,130.1-13,190.5-38.4c58.3-24.8,110.6-59.9,155.5-104.8c45-45,80.2-97.2,104.8-155.5c25.4-60.4,38.4-124.2,38.4-190.5
		c0-65.9-13-130.1-38.4-190.5c-24.8-58.3-59.9-110.6-104.8-155.5c-45-45-97.2-80.2-155.5-104.8C581.4,305.1,517.3,292.1,451.3,292.1
		z"/>
	
		<linearGradient id="SVGID_00000162317430027125178270000003481482044505545112_" gradientUnits="userSpaceOnUse" x1="166.0242" y1="-787.0013" x2="736.5077" y2="-747.1096" gradientTransform="matrix(1 0 0 -1 0 14)">
		<stop  offset="0" style="stop-color:#DA5A6E"/>
		<stop  offset="1" style="stop-color:#AB76E1"/>
	</linearGradient>
	<path style="fill:url(#SVGID_00000162317430027125178270000003481482044505545112_);" d="M451.3,1067
		c-157.6,0-285.9-128.2-285.9-285.9c0-157.6,128.2-285.9,285.9-285.9c157.6,0,285.9,128.2,285.9,285.9
		C737,938.8,608.8,1067,451.3,1067z M451.3,497c-156.8,0-284.2,127.4-284.2,284.2s127.4,284.2,284.2,284.2S735.4,938,735.4,781.2
		S608.1,497,451.3,497z"/>
	
		<linearGradient id="SVGID_00000092414403343815941380000009493295365563843219_" gradientUnits="userSpaceOnUse" x1="30.5201" y1="-796.4758" x2="872.0116" y2="-737.6331" gradientTransform="matrix(1 0 0 -1 0 14)">
		<stop  offset="0" style="stop-color:#DA5A6E"/>
		<stop  offset="1" style="stop-color:#AB76E1"/>
	</linearGradient>
	<path style="fill:url(#SVGID_00000092414403343815941380000009493295365563843219_);" d="M451.3,1202.8
		c-112.6,0-218.4-43.8-298.2-123.6S29.5,893.8,29.5,781.1c0-112.6,43.8-218.4,123.6-298.2s185.4-123.6,298.2-123.6
		c112.6,0,218.4,43.8,298.2,123.6S873,668.3,873,781.1c0,112.6-43.8,218.4-123.6,298.2S563.9,1202.8,451.3,1202.8z M451.3,361.2
		c-112.1,0-217.8,43.7-297,122.9S31.3,669.1,31.3,781.2S75,999,154.2,1078.3s184.9,122.9,297,122.9s217.8-43.7,297-122.9
		s122.9-184.9,122.9-297s-43.7-217.8-122.9-297S563.6,361.2,451.3,361.2z"/>
	
		<linearGradient id="SVGID_00000081643350644609780970000002149325860685509794_" gradientUnits="userSpaceOnUse" x1="117.8506" y1="-790.5291" x2="784.6814" y2="-743.9" gradientTransform="matrix(1 0 0 -1 0 14)">
		<stop  offset="0" style="stop-color:#DA5A6E"/>
		<stop  offset="1" style="stop-color:#AB76E1"/>
	</linearGradient>
	<path style="fill:url(#SVGID_00000081643350644609780970000002149325860685509794_);" d="M451.3,1115.4
		c-184.3,0-334.2-150-334.2-334.2S267,447,451.3,447s334.2,150,334.2,334.2S635.5,1115.4,451.3,1115.4z M451.3,448.6
		c-183.5,0-332.6,149.3-332.6,332.6c0,183.5,149.3,332.6,332.6,332.6c183.5,0,332.6-149.3,332.6-332.6
		C784.1,597.7,634.9,448.6,451.3,448.6z"/>
	
		<linearGradient id="SVGID_00000120547086154071275580000001255098645969906846_" gradientUnits="userSpaceOnUse" x1="253.1807" y1="-781.0656" x2="649.3511" y2="-753.3626" gradientTransform="matrix(1 0 0 -1 0 14)">
		<stop  offset="0" style="stop-color:#DA5A6E"/>
		<stop  offset="1" style="stop-color:#AB76E1"/>
	</linearGradient>
	<path style="fill:url(#SVGID_00000120547086154071275580000001255098645969906846_);" d="M451.3,979.8
		c-109.4,0-198.6-89-198.6-198.6c0-109.4,89-198.6,198.6-198.6c109.4,0,198.6,89,198.6,198.6C650,890.7,560.7,979.8,451.3,979.8z
		 M451.3,584.1c-108.7,0-197.1,88.5-197.1,197.1s88.5,197.1,197.1,197.1s197.1-88.5,197.1-197.1S560.1,584.1,451.3,584.1z"/>
	
		<linearGradient id="SVGID_00000072272033326126177950000016922838110813627802_" gradientUnits="userSpaceOnUse" x1="316.7273" y1="-776.6224" x2="585.8046" y2="-757.8066" gradientTransform="matrix(1 0 0 -1 0 14)">
		<stop  offset="0" style="stop-color:#DA5A6E"/>
		<stop  offset="1" style="stop-color:#AB76E1"/>
	</linearGradient>
	<path style="fill:url(#SVGID_00000072272033326126177950000016922838110813627802_);" d="M451.3,916.1
		c-74.3,0-134.9-60.5-134.9-134.9s60.5-134.9,134.9-134.9s134.9,60.5,134.9,134.9C586.1,855.6,525.6,916.1,451.3,916.1z
		 M451.3,649.4c-72.6,0-131.8,59.1-131.8,131.8c0,72.6,59.1,131.8,131.8,131.8c72.6,0,131.8-59.1,131.8-131.8
		C583.3,708.6,524,649.4,451.3,649.4z"/>
</g>
<polygon class="st8" points="149.1,269.9 154.5,286.2 138.2,291.8 143.1,306.9 159.5,301.5 165,317.8 180.4,312.9 174.9,296.6 
	191.4,291.2 186.3,275.8 169.8,281.2 164.4,264.8 "/>
<path class="st9" d="M747.4,233.3L752,321l-78.3-39.9L747.4,233.3z M743.4,307.7l-3.3-60.4l-50.5,33L743.4,307.7z"/>
</svg>
