<?xml version="1.0" encoding="utf-8"?>
<!-- Generator: Adobe Illustrator 27.8.0, SVG Export Plug-In . SVG Version: 6.00 Build 0)  -->
<svg version="1.1" id="Layer_1" xmlns="http://www.w3.org/2000/svg" xmlns:xlink="http://www.w3.org/1999/xlink" x="0px" y="0px"
	 width="232px" height="208px" viewBox="0 0 232 208" style="enable-background:new 0 0 232 208;" xml:space="preserve">
<style type="text/css">
	.st0{fill:#FFFFFF;}
</style>
<g>
	<g>
		<path class="st0" d="M44.1,71.6c1.5,0,2.6-1.2,2.6-2.7c0-1.5-1.2-2.7-2.6-2.7s-2.6,1.2-2.6,2.7C41.5,70.4,42.7,71.6,44.1,71.6z
			 M191.6,71.6c1.5,0,2.6-1.2,2.6-2.7c0-1.5-1.2-2.7-2.6-2.7c-1.5,0-2.6,1.2-2.6,2.7C189,70.4,190.1,71.6,191.6,71.6z M44.1,137.3
			c-1.5,0-2.6,1.2-2.6,2.7c0,1.5,1.2,2.7,2.6,2.7s2.6-1.2,2.6-2.7C46.8,138.5,45.6,137.3,44.1,137.3z M191.6,137.3
			c-1.5,0-2.6,1.2-2.6,2.7c0,1.5,1.2,2.7,2.6,2.7c1.5,0,2.6-1.2,2.6-2.7C194.3,138.5,193.1,137.3,191.6,137.3z M2.2,85v38h2.5V92
			l12.6,15.9L30,92V123h2.5V85l-15.2,19L2.2,85z M58.9,113.4h-2.5c0,2-0.7,3.7-2.2,5.1c-1.5,1.4-3.3,2.1-5.3,2.1
			c-2.1,0-3.9-0.7-5.3-2.1c-1.5-1.4-2.2-3.1-2.2-5.1v-19c0-2,0.7-3.6,2.2-5c1.5-1.4,3.3-2.1,5.3-2.1c2.1,0,3.9,0.7,5.3,2.1
			c1.5,1.4,2.2,3,2.2,5h2.5c0-2.6-1-4.8-3-6.7c-2-1.9-4.4-2.8-7.1-2.8c-2.8,0-5.2,0.9-7.1,2.8c-2,1.9-3,4.1-3,6.7v19
			c0,2.6,1,4.9,3,6.8c2,1.9,4.4,2.8,7.1,2.8c2.8,0,5.2-0.9,7.1-2.8C58,118.3,58.9,116.1,58.9,113.4z M69.9,89.4
			c1.5-1.4,3.3-2.1,5.3-2.1c2.1,0,3.9,0.7,5.3,2.1c1.5,1.4,2.2,3,2.2,5h2.5c0-2.6-1-4.8-3-6.7c-2-1.9-4.4-2.8-7.1-2.8
			c-2.8,0-5.2,0.9-7.1,2.8c-2,1.9-3,4.1-3,6.7v19c0,2.6,1,4.9,3,6.8c2,1.9,4.4,2.8,7.1,2.8c2.8,0,5.2-0.9,7.1-2.8c2-1.9,3-4.1,3-6.8
			V104H75.3v2.4h7.5v7.1c0,2-0.7,3.7-2.2,5.1c-1.5,1.4-3.3,2.1-5.3,2.1c-2.1,0-3.9-0.7-5.3-2.1c-1.5-1.4-2.2-3.1-2.2-5.1v-19
			C67.7,92.5,68.4,90.8,69.9,89.4z M111.8,85h-2.5v28.5c0,2-0.7,3.7-2.2,5.1c-1.5,1.4-3.3,2.1-5.3,2.1c-2.1,0-3.9-0.7-5.3-2.1
			c-1.5-1.4-2.2-3.1-2.2-5.1V85h-2.5v28.5c0,2.6,1,4.9,3,6.8c2,1.9,4.4,2.8,7.1,2.8c2.8,0,5.2-0.9,7.1-2.8c2-1.9,3-4.1,3-6.8V85z
			 M118,87.3h8.8v33.2H118v2.4h20.2v-2.4h-8.8V87.3h8.8V85H118V87.3z M149.1,89.4c1.5-1.4,3.3-2.1,5.3-2.1s3.9,0.7,5.3,2.1
			c1.5,1.4,2.2,3,2.2,5h2.5c0-2.6-1-4.8-3-6.7c-2-1.9-4.4-2.8-7.1-2.8c-2.8,0-5.2,0.9-7.1,2.8c-2,1.9-3,4.1-3,6.7v19
			c0,2.6,1,4.9,3,6.8c2,1.9,4.4,2.8,7.1,2.8c2.8,0,5.2-0.9,7.1-2.8c2-1.9,3-4.1,3-6.8V104h-10.1v2.4h7.5v7.1c0,2-0.7,3.7-2.2,5.1
			c-1.5,1.4-3.3,2.1-5.3,2.1s-3.9-0.7-5.3-2.1c-1.5-1.4-2.2-3.1-2.2-5.1v-19C146.9,92.5,147.7,90.8,149.1,89.4z M170.8,123h2.6
			l10-30.1l10.1,30.1h2.6l-12.7-38L170.8,123z M226.9,85v30.8L202.3,85v38h2.5V92l24.7,30.9V85H226.9z M114.4,61.7h-1v-1.1h0.9v-1
			h-0.9v-1.1h1v-0.9h-2v5h2V61.7z M118.1,61.1c0-1.4-1.5-1.4-1.5-2.3c0-0.3,0.2-0.5,0.5-0.5c0.3,0,0.5,0.2,0.7,0.3v-1
			c-0.3-0.2-0.5-0.2-0.9-0.2c-0.9,0-1.3,0.7-1.3,1.5c0,0.7,0.4,1.1,0.9,1.5c0.2,0.1,0.4,0.3,0.5,0.5c0,0.1,0.1,0.2,0.1,0.3
			c0,0.3-0.2,0.6-0.6,0.6c-0.3,0-0.5-0.1-0.7-0.3v1c0.3,0.2,0.6,0.3,0.9,0.3C117.6,62.7,118.1,62,118.1,61.1z M120.9,62.6v-4.1h0.8
			v-0.9h-2.6v0.9h0.8v4.1H120.9z M122.6,58.3c0,0.6,0.2,1.3,1,1.3c0.7,0,1-0.7,1-1.3c0-0.6-0.2-1.3-1-1.3
			C122.8,57,122.6,57.7,122.6,58.3z M123.5,57.6c0.2,0,0.2,0.5,0.2,0.7c0,0.2,0,0.7-0.2,0.7c-0.2,0-0.2-0.5-0.2-0.7
			C123.3,58.1,123.3,57.6,123.5,57.6z M122.4,60.7h2.8v-0.3h-2.8V60.7z M110.4,146.3h0.5v4.2h1v-5h-1.5V146.3z M115,145.4
			c-1,0-1.4,1-1.4,1.8c0,0.6,0.2,1.6,1,1.6c0.2,0,0.4-0.1,0.6-0.3l-1,2h1l0.4-0.9c0-0.1,0.1-0.2,0.2-0.3c0.3-0.7,0.5-1.4,0.5-2.1
			C116.4,146.2,116,145.4,115,145.4z M115,147.9c-0.3,0-0.4-0.5-0.4-0.8c0-0.3,0-0.9,0.4-0.9c0.3,0,0.4,0.6,0.4,0.8
			C115.4,147.3,115.3,147.9,115,147.9z M119.6,147.8c0.5-0.2,0.7-0.6,0.7-1.1c0-0.7-0.5-1.3-1.3-1.3c-0.8,0-1.3,0.6-1.3,1.3
			c0,0.5,0.2,0.9,0.7,1.1c-0.2,0.1-0.4,0.2-0.6,0.4c-0.2,0.3-0.3,0.6-0.3,1c0,0.8,0.6,1.5,1.4,1.5c0.8,0,1.4-0.6,1.4-1.5
			c0-0.3-0.1-0.7-0.3-1C120,147.9,119.8,147.8,119.6,147.8z M119,146.1c0.2,0,0.3,0.3,0.3,0.5c0,0.2,0,0.6-0.3,0.6
			c-0.2,0-0.3-0.4-0.3-0.6S118.7,146.1,119,146.1z M119,149.7c-0.3,0-0.4-0.5-0.4-0.7s0.1-0.7,0.4-0.7c0.3,0,0.4,0.5,0.4,0.7
			C119.4,149.2,119.3,149.7,119,149.7z M124.4,146.6c0-0.9-0.5-1.3-1.4-1.3c-1,0-1.3,0.6-1.3,1.6c0,0.1,0,0.2,0,0.3h0.9
			c0-0.1,0-0.2,0-0.3c0-0.3,0-0.8,0.4-0.8c0.3,0,0.4,0.4,0.4,0.6c0,0.5-0.4,1.2-0.6,1.6l-1.2,2.2h2.6v-0.9h-1.2l0.7-1.4
			C124.1,147.7,124.4,147.2,124.4,146.6z M56.1,58.3c-2.3-1.7-4.7-3.3-7-5c-0.4,0.6-0.8,1.2-1.2,1.8c2.4,1.6,4.8,3.2,7.2,4.8
			C55.4,59.3,55.8,58.8,56.1,58.3z M67.8,45.2c0.3-0.3,0.6-0.6,0.9-0.8c-1.9-2.2-3.7-4.4-5.6-6.6c-0.5,0.4-1,0.9-1.5,1.3
			c1.3,1.4,2.6,2.9,3.9,4.3c-2.7-0.1-5.5-0.1-8.4,0.2c-0.3,0.3-0.7,0.7-1,1c2.1,2,4.2,3.9,6.3,5.9c0.4-0.5,0.8-0.9,1.3-1.3
			c-1.4-1.3-2.8-2.7-4.1-4C62.4,44.9,65.1,45,67.8,45.2z M73.4,31.9c1.3,2,2.6,4,3.9,6.1c0.5-0.3,1-0.6,1.5-0.9
			c-1.2-2-2.5-4.1-3.7-6.1c0.6-0.4,1.3-0.8,1.9-1.1c-0.2-0.4-0.5-0.8-0.7-1.3c-1.9,1.1-3.7,2.2-5.5,3.4c0.3,0.4,0.5,0.8,0.8,1.2
			C72.1,32.7,72.7,32.3,73.4,31.9z M92,29.1c-1,0.4-2,0.8-3,1.2c-0.3-0.7-0.6-1.5-0.9-2.2c1-0.4,2-0.8,3-1.1
			c-0.2-0.5-0.3-0.9-0.5-1.4c-1,0.4-2,0.8-3.1,1.2c-0.2-0.6-0.5-1.2-0.7-1.8c1.1-0.4,2.2-0.9,3.3-1.2c-0.2-0.5-0.3-0.9-0.5-1.4
			c-1.7,0.6-3.4,1.3-5.1,2c1.2,2.6,2.3,5.3,3.5,7.9c1.5-0.7,3-1.3,4.6-1.8C92.4,30,92.2,29.6,92,29.1z M102.6,27.6
			c-0.2-1.1-0.5-2.3-0.7-3.4c0.1,0,0.1,0,0.2,0c1,1,2,2,3,3c0.7-0.1,1.4-0.2,2.1-0.3c-1.1-1.1-2.2-2.1-3.4-3.1
			c0.4-0.2,0.7-0.4,0.9-0.5c0.6-0.6,0.9-1.3,0.7-2.2c-0.1-0.6-0.4-1.3-1.3-1.8c-0.5-0.3-1.2-0.5-2.6-0.2c-0.9,0.2-1.9,0.4-2.8,0.6
			c0.7,2.8,1.3,5.6,2,8.4C101.5,27.9,102.1,27.8,102.6,27.6z M101.7,20.4c0.3-0.1,1.8-0.3,2,0.9c0.2,1.2-1.2,1.5-1.5,1.6
			c-0.2,0-0.3,0.1-0.5,0.1c-0.2-0.8-0.4-1.7-0.5-2.5C101.3,20.5,101.5,20.5,101.7,20.4z M117.1,24.2c1.2,0,2.4,0,3.6,0
			c0.2,0.6,0.5,1.2,0.7,1.8c0.6,0,1.2,0.1,1.8,0.1c-1-2.9-2.2-5.9-3.5-8.8c-0.5,0-1,0-1.5,0c-1.4,2.9-2.6,5.8-3.7,8.7
			c0.6,0,1.2-0.1,1.9-0.1C116.6,25.4,116.9,24.8,117.1,24.2z M119,19.7c0.4,1,0.9,2.1,1.3,3.1c-0.9,0-1.7,0-2.6,0
			C118.1,21.8,118.5,20.8,119,19.7z M133.4,19.7c-0.9,0.5-1.8,1.5-2.1,3.1c-0.2,1.3,0,2.4,0.9,3.5c0.6,0.8,1.4,1.5,2.9,1.8
			c0.9,0.2,1.7,0.1,2.2,0c0.2-0.6,0.3-1.3,0.5-1.9c-0.7,0.4-1.5,0.6-2.3,0.4c-1.5-0.3-2.8-1.6-2.4-3.5c0.3-1.6,1.8-2.8,3.7-2.3
			c0.3,0.1,1.4,0.4,2,1.5c0.2-0.6,0.3-1.3,0.5-1.9c-0.8-0.6-1.5-0.9-2.2-1.1C135.8,18.9,134.5,19,133.4,19.7z M148.3,32
			c0.9-2.2,1.9-4.4,2.8-6.6c0.7,0.3,1.3,0.6,2,0.9c0.2-0.4,0.4-0.9,0.6-1.3c-1.9-0.9-3.9-1.7-5.9-2.4c-0.2,0.5-0.3,0.9-0.5,1.4
			c0.7,0.2,1.4,0.5,2,0.8c-0.9,2.2-1.8,4.5-2.7,6.7C147.3,31.6,147.8,31.8,148.3,32z M163.6,30.2c-0.5-0.3-1.1-0.7-1.7-1
			c-1.5,2.5-2.9,5-4.4,7.4c0.5,0.3,1,0.6,1.5,0.9C160.5,35.1,162.1,32.7,163.6,30.2z M176.9,40.5c-2,0.8-3.9,1.6-5.9,2.5
			c0.7-2,1.2-4,1.8-6.1c-0.6-0.5-1.1-0.9-1.7-1.4c-0.7,3.1-1.5,6.2-2.4,9.2c0.3,0.2,0.5,0.5,0.8,0.7c2.9-1.3,5.9-2.4,8.9-3.4
			C178,41.5,177.5,41,176.9,40.5z M181.3,58.9c0.4-0.3,0.8-0.6,1.2-0.8c-0.7-1-1.4-1.9-2.1-2.9c0.6-0.5,1.2-1,1.9-1.4
			c0.7,0.9,1.4,1.9,2,2.8c0.4-0.3,0.8-0.6,1.2-0.8c-0.7-1-1.4-1.9-2.1-2.9c0.5-0.4,1-0.8,1.5-1.2c0.8,1,1.5,2,2.2,3.1
			c0.4-0.3,0.8-0.6,1.2-0.8c-1.1-1.6-2.3-3.2-3.5-4.8c-2.2,1.8-4.5,3.6-6.7,5.4C179.3,56,180.3,57.4,181.3,58.9z M61.8,157.5
			c-0.5-0.6-0.9-1.2-1.4-1.7c-2,1.6-4,3.1-6,4.7c0.5,0.6,1,1.3,1.5,1.9c0.8,1,1.6,1.7,2.8,2.1c1.3,0.4,2.6,0.1,3.5-0.8
			c0.9-0.9,1.3-2.1,1.1-3.3C63.1,159.3,62.5,158.4,61.8,157.5z M61,162.4c-0.6,0.5-1.4,0.8-2.2,0.5c-0.9-0.3-1.5-1-1.8-1.4
			c-0.1-0.1-0.2-0.3-0.4-0.4c1.3-1.1,2.6-2.1,3.9-3.2c0.1,0.1,0.2,0.3,0.3,0.4c0.4,0.4,0.9,1.1,1,2C61.9,161.1,61.5,161.9,61,162.4z
			 M77,180.4c1.4,0.8,2.8,1.6,4.2,2.3c0.2-0.4,0.4-0.8,0.6-1.1c-0.9-0.5-1.8-0.9-2.7-1.5c0.3-0.6,0.7-1.2,1-1.8
			c0.8,0.5,1.7,0.9,2.5,1.4c0.2-0.4,0.4-0.8,0.6-1.1c-0.8-0.4-1.7-0.9-2.5-1.3c0.3-0.5,0.6-1,0.8-1.5c0.8,0.5,1.7,0.9,2.6,1.4
			c0.2-0.4,0.4-0.8,0.6-1.1c-1.3-0.7-2.6-1.4-3.8-2.1C79.6,176,78.3,178.2,77,180.4z M105.6,183.9c0.3,0,0.8,0.2,1.2,0.8
			c0.3-0.3,0.6-0.6,0.9-0.9c-0.7-0.9-1.6-1.1-2-1.2c-1.7-0.3-2.7,0.6-2.9,1.7c-0.2,0.8,0.1,1.2,0.3,1.5c0.3,0.4,0.8,0.7,1.2,0.9
			c0.4,0.2,0.9,0.5,1.2,0.8c0.2,0.2,0.3,0.5,0.2,0.7c-0.1,0.6-0.7,1-1.4,0.8c-0.6-0.1-1.3-0.5-1.5-1.3c-0.4,0.2-0.8,0.5-1.2,0.7
			c0.3,0.7,1,1.7,2.6,2c1.7,0.3,3.1-0.6,3.3-2c0.1-0.8-0.2-1.3-0.5-1.7c-0.4-0.4-0.9-0.7-1.5-1c-0.5-0.3-0.7-0.4-0.9-0.6
			c-0.2-0.2-0.2-0.4-0.2-0.5C104.4,184.2,104.8,183.8,105.6,183.9z M127.3,183.3c0.3,2.5,0.6,5,0.9,7.6c0.5-0.1,1.1-0.1,1.6-0.2
			c-0.4-2.5-0.7-5-1.1-7.5C128.3,183.2,127.8,183.2,127.3,183.3z M156.3,177.5c-1.1,0.6-2.2,1.2-3.3,1.7c0.2,0.4,0.4,0.8,0.6,1.1
			c0.6-0.3,1.3-0.6,1.9-1c0.1,0.5,0,1-0.1,1.4c-0.3,0.5-0.8,0.9-1.3,1.2c-0.8,0.4-1.5,0.4-2,0.2c-0.5-0.1-1.1-0.5-1.6-1.4
			c-0.4-0.8-0.3-1.6-0.1-2.2c0.2-0.6,0.8-1.1,1.4-1.4c0.3-0.2,0.7-0.3,1.1-0.3c0.3,0,0.8,0,1.2,0.4c0.3-0.4,0.6-0.8,0.9-1.3
			c-0.7-0.4-1.4-0.5-2-0.5c-0.7,0-1.3,0.2-1.8,0.5c-1.3,0.7-2,1.6-2.3,2.4c-0.2,0.6-0.5,1.7,0.1,3.1c0.7,1.6,1.9,2.1,2.3,2.2
			c1.2,0.4,2.3,0.1,3.2-0.4c1-0.5,1.8-1.2,2.2-2.3C157.3,179.4,156.6,178,156.3,177.5C156.3,177.5,156.3,177.5,156.3,177.5z
			 M174.4,158c1.3,1.1,2.6,2.2,3.9,3.3c-2.4,0.3-4.8,0.4-7.2,0.4c-0.3,0.3-0.5,0.5-0.8,0.8c1.8,1.8,3.6,3.6,5.4,5.4
			c0.4-0.4,0.8-0.8,1.2-1.2c-1.2-1.2-2.5-2.4-3.7-3.5c2.4-0.1,4.8-0.2,7.3-0.5c0.3-0.3,0.5-0.6,0.8-0.9c-2-1.6-3.9-3.2-5.9-4.8
			C175,157.2,174.7,157.6,174.4,158z"/>
	</g>
</g>
</svg>
