<?xml version="1.0" encoding="utf-8"?>
<!-- Generator: Adobe Illustrator 27.9.0, SVG Export Plug-In . SVG Version: 6.00 Build 0)  -->
<svg version="1.1" id="Layer_1" xmlns="http://www.w3.org/2000/svg" xmlns:xlink="http://www.w3.org/1999/xlink" x="0px" y="0px"
	 width="1178px" height="1102px" viewBox="0 0 1178 1102" style="enable-background:new 0 0 1178 1102;" xml:space="preserve">
<style type="text/css">
	.st0{fill:url(#SVGID_1_);}
	.st1{fill:url(#SVGID_00000176014890048387789160000003679997291884398767_);}
	.st2{fill:url(#SVGID_00000119816387043294874390000014820327270431570359_);}
	.st3{fill:url(#SVGID_00000102502237433747179460000005006534078306868116_);}
	.st4{fill:url(#SVGID_00000054228090146764475240000008486680248114357919_);}
	.st5{fill:url(#SVGID_00000077320823814640509630000017361110406446823859_);}
	.st6{opacity:0.12;fill:url(#SVGID_00000093864853037357712950000013472043519782659510_);enable-background:new    ;}
	.st7{fill:#DA5A6E;}
	.st8{fill:url(#SVGID_00000057134327503300059340000000139112312429510575_);}
	.st9{fill:url(#SVGID_00000131332751485575569520000002923169301641118903_);}
	.st10{fill:#5B0075;}
</style>
<linearGradient id="SVGID_1_" gradientUnits="userSpaceOnUse" x1="-438.2204" y1="-29.6327" x2="-352.234" y2="-29.6327" gradientTransform="matrix(0.122 0.9925 -0.9925 0.122 227.0692 501.889)">
	<stop  offset="0" style="stop-color:#43035A"/>
	<stop  offset="0.3819" style="stop-color:#4C0269"/>
	<stop  offset="1" style="stop-color:#59007E"/>
</linearGradient>
<path class="st0" d="M160.9,69.6l0.7-0.9c0.4-0.5,1-0.6,1.4-0.2l92.7,72.4c0.5,0.4,0.6,1,0.2,1.4l-0.7,0.9c-0.4,0.5-1,0.6-1.4,0.2
	L161,71C160.4,70.9,160.3,70.2,160.9,69.6z"/>
<linearGradient id="SVGID_00000050663671755691357760000011621961598468575653_" gradientUnits="userSpaceOnUse" x1="51.6784" y1="159.7374" x2="137.6648" y2="159.7374" gradientTransform="matrix(0.122 0.9925 -0.9925 0.122 227.0692 501.889)">
	<stop  offset="0" style="stop-color:#43035A"/>
	<stop  offset="0.3819" style="stop-color:#4C0269"/>
	<stop  offset="1" style="stop-color:#59007E"/>
</linearGradient>
<path style="fill:url(#SVGID_00000050663671755691357760000011621961598468575653_);" d="M32.7,579l0.7-0.9c0.4-0.5,1-0.6,1.4-0.2
	l92.7,72.4c0.5,0.4,0.6,1,0.2,1.4l-0.7,0.9c-0.4,0.5-1,0.6-1.4,0.2l-92.7-72.4C32.2,580.3,32.1,579.5,32.7,579z"/>
<linearGradient id="SVGID_00000140013778093955006370000006316559412102206634_" gradientUnits="userSpaceOnUse" x1="-416.5121" y1="53.4477" x2="-330.5258" y2="53.4477" gradientTransform="matrix(0.122 0.9925 -0.9925 0.122 227.0692 501.889)">
	<stop  offset="0" style="stop-color:#43035A"/>
	<stop  offset="0.3819" style="stop-color:#4C0269"/>
	<stop  offset="1" style="stop-color:#59007E"/>
</linearGradient>
<path style="fill:url(#SVGID_00000140013778093955006370000006316559412102206634_);" d="M81,101.3l0.7-0.9c0.4-0.5,1-0.6,1.4-0.2
	l92.7,72.4c0.5,0.4,0.6,1,0.2,1.4l-0.7,0.9c-0.4,0.5-1,0.6-1.4,0.2l-92.7-72.4C80.7,102.5,80.6,101.8,81,101.3z"/>
<linearGradient id="SVGID_00000158005443412555412760000017357403541626922165_" gradientUnits="userSpaceOnUse" x1="-111.0567" y1="-20.4529" x2="-25.0703" y2="-20.4529" gradientTransform="matrix(0.122 0.9925 -0.9925 0.122 227.0692 501.889)">
	<stop  offset="0" style="stop-color:#43035A"/>
	<stop  offset="0.3819" style="stop-color:#4C0269"/>
	<stop  offset="1" style="stop-color:#59007E"/>
</linearGradient>
<path style="fill:url(#SVGID_00000158005443412555412760000017357403541626922165_);" d="M191.6,395.5l0.7-0.9
	c0.4-0.5,1-0.6,1.4-0.2l92.7,72.4c0.5,0.4,0.6,1,0.2,1.4l-0.7,0.9c-0.4,0.5-1,0.6-1.4,0.2l-92.7-72.4
	C191.3,396.6,191.2,396,191.6,395.5z"/>
<linearGradient id="SVGID_00000150784054217130491940000001107033985019110809_" gradientUnits="userSpaceOnUse" x1="-104.7444" y1="-1.8238" x2="-18.758" y2="-1.8238" gradientTransform="matrix(0.122 0.9925 -0.9925 0.122 227.0692 501.889)">
	<stop  offset="0" style="stop-color:#43035A"/>
	<stop  offset="0.3819" style="stop-color:#4C0269"/>
	<stop  offset="1" style="stop-color:#59007E"/>
</linearGradient>
<path style="fill:url(#SVGID_00000150784054217130491940000001107033985019110809_);" d="M173.9,404l0.7-0.9c0.4-0.5,1-0.6,1.4-0.2
	l92.7,72.4c0.5,0.4,0.6,1,0.2,1.4l-0.7,0.9c-0.4,0.5-1,0.6-1.4,0.2l-92.7-72.4C173.6,405,173.5,404.4,173.9,404z"/>
<linearGradient id="SVGID_00000044882807517235510160000002729323478330226089_" gradientUnits="userSpaceOnUse" x1="-107.0538" y1="-312.5138" x2="-21.0674" y2="-312.5138" gradientTransform="matrix(0.122 0.9925 -0.9925 0.122 227.0692 501.889)">
	<stop  offset="0" style="stop-color:#43035A"/>
	<stop  offset="0.3819" style="stop-color:#4C0269"/>
	<stop  offset="1" style="stop-color:#59007E"/>
</linearGradient>
<path style="fill:url(#SVGID_00000044882807517235510160000002729323478330226089_);" d="M482,363.8l0.7-0.9c0.4-0.5,1-0.6,1.4-0.2
	l92.7,72.4c0.5,0.4,0.6,1,0.2,1.4l-0.7,0.9c-0.4,0.5-1,0.6-1.4,0.2l-92.7-72.4C481.6,364.8,481.6,364.2,482,363.8z"/>
<linearGradient id="SVGID_00000114771299308767504700000017334762511891219620_" gradientUnits="userSpaceOnUse" x1="-425.8651" y1="-56.7873" x2="-85.6149" y2="-56.7873" gradientTransform="matrix(0.122 0.9925 -0.9925 0.122 227.0692 501.889)">
	<stop  offset="0" style="stop-color:#FFFFFF"/>
	<stop  offset="1" style="stop-color:#211915"/>
</linearGradient>
<circle style="opacity:0.12;fill:url(#SVGID_00000114771299308767504700000017334762511891219620_);enable-background:new    ;" cx="252.2" cy="241.1" r="170.1"/>
<path class="st7" d="M480.9,283.3L480.9,283.3c3.2-1.5,6.9-0.7,9.4,1.8l0,0c2.5,2.6,3,6.5,1.2,9.5l0,0c-1.8,3.2-5.2,4.7-8.7,4l0,0
	c-3.5-0.7-6-3.4-6.4-7l0,0C475.8,288.3,477.6,284.9,480.9,283.3z"/>
<linearGradient id="SVGID_00000021815454147008773820000017602441154792676487_" gradientUnits="userSpaceOnUse" x1="-396.3162" y1="-198.2907" x2="-322.7824" y2="-198.2907" gradientTransform="matrix(0.122 0.9925 -0.9925 0.122 227.0692 501.889)">
	<stop  offset="0" style="stop-color:#AB76E1"/>
	<stop  offset="1" style="stop-color:#95FFFF"/>
</linearGradient>
<polygon style="fill:url(#SVGID_00000021815454147008773820000017602441154792676487_);" points="418.8,135.3 397.5,118.6 
	414.2,97.4 394.4,82 377.8,103.1 356.6,86.7 341.2,106.4 362.3,123 345.8,144.2 365.6,159.6 382.1,138.5 403.4,155 "/>
<linearGradient id="SVGID_00000021109145147698757220000000317460576757623448_" gradientUnits="userSpaceOnUse" x1="-221.8506" y1="-187.0405" x2="97.1686" y2="-209.3485" gradientTransform="matrix(0.122 0.9925 -0.9925 0.122 227.0692 501.889)">
	<stop  offset="0" style="stop-color:#DA5A6E"/>
	<stop  offset="1" style="stop-color:#AB76E1"/>
</linearGradient>
<path style="fill:url(#SVGID_00000021109145147698757220000000317460576757623448_);" d="M-39,665.5
	C12.2,550,92.5,448.8,193.2,372.8c103.9-78.2,227.3-128.2,357.2-144.1c116.1-14.3,230.8-1.7,340.4,37.3l-1.2,3.2
	c-109-39-223.1-51.7-338.9-37.4c-129.4,15.9-252.2,65.5-355.4,143.7C95.2,451.2,15.3,552-35.9,666.7L-39,665.5z"/>
<polygon class="st10" points="-37.3,599.8 -67.6,598.4 -51.5,572.9 "/>
</svg>
