<?xml version="1.0" encoding="utf-8"?>
<!-- Generator: Adobe Illustrator 28.3.0, SVG Export Plug-In . SVG Version: 6.00 Build 0)  -->
<svg version="1.1" id="Layer_1" xmlns="http://www.w3.org/2000/svg" xmlns:xlink="http://www.w3.org/1999/xlink" x="0px" y="0px"
	 width="1178px" height="1102px" viewBox="0 0 1178 1102" style="enable-background:new 0 0 1178 1102;" xml:space="preserve">
<style type="text/css">
	.st0{opacity:0.8;}
	.st1{fill:url(#SVGID_1_);}
	.st2{fill:url(#SVGID_00000087376322469467525630000002373953432376059568_);}
	.st3{fill:url(#SVGID_00000161611922982070280500000003842223183499012531_);}
	.st4{fill:url(#SVGID_00000061434719401914415840000000234802691114631614_);}
	.st5{fill:url(#SVGID_00000003787151049748864950000001369729552498457508_);}
	.st6{fill:url(#SVGID_00000049193987904552289540000005254884961042257804_);}
	.st7{fill:url(#SVGID_00000026841502812482785950000014531728238439905462_);}
	.st8{fill:url(#SVGID_00000031184722614496928070000006653798167100790453_);}
	.st9{opacity:0.12;fill:url(#SVGID_00000070805435264059255150000018022575153456789947_);enable-background:new    ;}
	.st10{fill:url(#SVGID_00000105410239866217025810000013280248984876106379_);}
	.st11{fill:#5B0075;}
	.st12{fill:url(#SVGID_00000051368596965888023390000001057544106882413702_);}
</style>
<g class="st0">
	
		<linearGradient id="SVGID_1_" gradientUnits="userSpaceOnUse" x1="868.775" y1="1126.2625" x2="924.625" y2="1126.2625" gradientTransform="matrix(1 0 0 -1 0 1104)">
		<stop  offset="0" style="stop-color:#43035A"/>
		<stop  offset="0.3819" style="stop-color:#4C0269"/>
		<stop  offset="1" style="stop-color:#59007E"/>
	</linearGradient>
	<path class="st1" d="M869.5,5.4L869,4.9c-0.3-0.3-0.3-0.7,0-0.9l54-54c0.3-0.3,0.7-0.3,0.9,0l0.5,0.5c0.3,0.3,0.3,0.7,0,0.9l-54,54
		C870.2,5.8,869.8,5.8,869.5,5.4z"/>
	
		<linearGradient id="SVGID_00000097493981854537066500000012165191260663449011_" gradientUnits="userSpaceOnUse" x1="866.475" y1="1093.6625" x2="922.325" y2="1093.6625" gradientTransform="matrix(1 0 0 -1 0 1104)">
		<stop  offset="0" style="stop-color:#43035A"/>
		<stop  offset="0.3819" style="stop-color:#4C0269"/>
		<stop  offset="1" style="stop-color:#59007E"/>
	</linearGradient>
	<path style="fill:url(#SVGID_00000097493981854537066500000012165191260663449011_);" d="M867.2,38l-0.5-0.5
		c-0.3-0.3-0.3-0.7,0-0.9l54-54c0.3-0.3,0.7-0.3,0.9,0l0.5,0.5c0.3,0.3,0.3,0.7,0,0.9l-54,54C867.9,38.4,867.5,38.4,867.2,38z"/>
	
		<linearGradient id="SVGID_00000044148073269853284360000017209992921717827982_" gradientUnits="userSpaceOnUse" x1="495.875" y1="885.5625" x2="551.725" y2="885.5625" gradientTransform="matrix(1 0 0 -1 0 1104)">
		<stop  offset="0" style="stop-color:#43035A"/>
		<stop  offset="0.3819" style="stop-color:#4C0269"/>
		<stop  offset="1" style="stop-color:#59007E"/>
	</linearGradient>
	<path style="fill:url(#SVGID_00000044148073269853284360000017209992921717827982_);" d="M496.6,246.1l-0.5-0.5
		c-0.3-0.3-0.3-0.7,0-0.9l54-54c0.3-0.3,0.7-0.3,0.9,0l0.5,0.5c0.3,0.3,0.3,0.7,0,0.9l-54,54C497.4,246.5,496.9,246.5,496.6,246.1z"
		/>
	
		<linearGradient id="SVGID_00000030451758463906439650000004956586289532292251_" gradientUnits="userSpaceOnUse" x1="814.075" y1="762.5625" x2="869.925" y2="762.5625" gradientTransform="matrix(1 0 0 -1 0 1104)">
		<stop  offset="0" style="stop-color:#43035A"/>
		<stop  offset="0.3819" style="stop-color:#4C0269"/>
		<stop  offset="1" style="stop-color:#59007E"/>
	</linearGradient>
	<path style="fill:url(#SVGID_00000030451758463906439650000004956586289532292251_);" d="M814.8,369.1l-0.5-0.5
		c-0.3-0.3-0.3-0.7,0-0.9l54-54c0.3-0.3,0.7-0.3,0.9,0l0.5,0.5c0.3,0.3,0.3,0.7,0,0.9l-54,54C815.6,369.5,815.1,369.5,814.8,369.1z"
		/>
	
		<linearGradient id="SVGID_00000132080538114997200310000003381494214003719839_" gradientUnits="userSpaceOnUse" x1="509.975" y1="831.6" x2="565.825" y2="831.6" gradientTransform="matrix(1 0 0 -1 0 1104)">
		<stop  offset="0" style="stop-color:#43035A"/>
		<stop  offset="0.3819" style="stop-color:#4C0269"/>
		<stop  offset="1" style="stop-color:#59007E"/>
	</linearGradient>
	<path style="fill:url(#SVGID_00000132080538114997200310000003381494214003719839_);" d="M510.7,300.1l-0.5-0.5
		c-0.3-0.3-0.3-0.7,0-0.9l54-54c0.3-0.3,0.7-0.3,0.9,0l0.5,0.5c0.3,0.3,0.3,0.7,0,0.9l-54,54C511.4,300.4,511,300.4,510.7,300.1z"/>
	
		<linearGradient id="SVGID_00000106134950914014640740000003514007825585872265_" gradientUnits="userSpaceOnUse" x1="708.375" y1="879.6" x2="764.225" y2="879.6" gradientTransform="matrix(1 0 0 -1 0 1104)">
		<stop  offset="0" style="stop-color:#43035A"/>
		<stop  offset="0.3819" style="stop-color:#4C0269"/>
		<stop  offset="1" style="stop-color:#59007E"/>
	</linearGradient>
	<path style="fill:url(#SVGID_00000106134950914014640740000003514007825585872265_);" d="M709.1,252.1l-0.5-0.5
		c-0.3-0.3-0.3-0.7,0-0.9l54-54c0.3-0.3,0.7-0.3,0.9,0l0.5,0.5c0.3,0.3,0.3,0.7,0,0.9l-54,54C709.8,252.4,709.4,252.4,709.1,252.1z"
		/>
	
		<linearGradient id="SVGID_00000181084766738224865060000003902780317962354341_" gradientUnits="userSpaceOnUse" x1="712.475" y1="867.5" x2="768.325" y2="867.5" gradientTransform="matrix(1 0 0 -1 0 1104)">
		<stop  offset="0" style="stop-color:#43035A"/>
		<stop  offset="0.3819" style="stop-color:#4C0269"/>
		<stop  offset="1" style="stop-color:#59007E"/>
	</linearGradient>
	<path style="fill:url(#SVGID_00000181084766738224865060000003902780317962354341_);" d="M713.2,264.2l-0.5-0.5
		c-0.3-0.3-0.3-0.7,0-0.9l54-54c0.3-0.3,0.7-0.3,0.9,0l0.5,0.5c0.3,0.3,0.3,0.7,0,0.9l-54,54C713.8,264.5,713.4,264.5,713.2,264.2z"
		/>
	
		<linearGradient id="SVGID_00000058586995036436473420000012304218760701387174_" gradientUnits="userSpaceOnUse" x1="710.975" y1="1069.3" x2="766.825" y2="1069.3" gradientTransform="matrix(1 0 0 -1 0 1104)">
		<stop  offset="0" style="stop-color:#43035A"/>
		<stop  offset="0.3819" style="stop-color:#4C0269"/>
		<stop  offset="1" style="stop-color:#59007E"/>
	</linearGradient>
	<path style="fill:url(#SVGID_00000058586995036436473420000012304218760701387174_);" d="M711.7,62.4l-0.5-0.5
		c-0.3-0.3-0.3-0.7,0-0.9l54-54c0.3-0.3,0.7-0.3,0.9,0l0.5,0.5c0.3,0.3,0.3,0.7,0,0.9l-54,54C712.3,62.7,711.9,62.7,711.7,62.4z"/>
</g>
<linearGradient id="SVGID_00000118374292940585823860000011219066093103874998_" gradientUnits="userSpaceOnUse" x1="503.9" y1="903.2" x2="724.9" y2="903.2" gradientTransform="matrix(1 0 0 -1 0 1104)">
	<stop  offset="0" style="stop-color:#FFFFFF"/>
	<stop  offset="1" style="stop-color:#211915"/>
</linearGradient>
<circle style="opacity:0.12;fill:url(#SVGID_00000118374292940585823860000011219066093103874998_);enable-background:new    ;" cx="614.4" cy="200.8" r="110.5"/>
<linearGradient id="SVGID_00000119837845100368962320000015408016269747881620_" gradientUnits="userSpaceOnUse" x1="636.4119" y1="987.8024" x2="843.6219" y2="1002.2919" gradientTransform="matrix(1 0 0 -1 0 1104)">
	<stop  offset="0" style="stop-color:#DA5A6E"/>
	<stop  offset="1" style="stop-color:#AB76E1"/>
</linearGradient>
<path style="fill:url(#SVGID_00000119837845100368962320000015408016269747881620_);" d="M864.9,422.2
	c-70.4-42.2-129.3-102-170.3-172.9C652.4,176.1,630,92.6,630,7.6c0-76,17.2-148.9,51-216.5l2,1c-33.8,67.2-51,139.7-51,215.5
	c0,84.7,22.2,167.8,64.5,240.5c40.9,70.6,99.5,130.1,169.4,172.2L864.9,422.2z"/>
<polygon class="st11" points="822.7,415.9 819.4,435.3 804.2,422.9 "/>
<path class="st11" d="M590.4,460.4l-32.4,9.2l8.2-32.6L590.4,460.4z M565.3,462.1l15.1-4.2L569.2,447L565.3,462.1z"/>
<linearGradient id="SVGID_00000073717363573272949350000013530006165319194761_" gradientUnits="userSpaceOnUse" x1="922.3" y1="951.3" x2="1065.7" y2="951.3" gradientTransform="matrix(1 0 0 -1 0 1104)">
	<stop  offset="0" style="stop-color:#43035A"/>
	<stop  offset="0.3819" style="stop-color:#4C0269"/>
	<stop  offset="1" style="stop-color:#59007E"/>
</linearGradient>
<path style="fill:url(#SVGID_00000073717363573272949350000013530006165319194761_);" d="M924.3,223.8l-1.4-1.4
	c-0.8-0.8-0.8-1.9,0-2.4l138.4-138.4c0.8-0.8,1.9-0.8,2.4,0l1.4,1.4c0.8,0.8,0.8,1.9,0,2.4L926.7,223.8
	C926.1,224.6,925,224.6,924.3,223.8z"/>
<path class="st11" d="M934.3,372.7l-17.7-6.6l14.5-12L934.3,372.7z M922.4,365.2l8.2,3.1l-1.4-8.6L922.4,365.2z"/>
<path class="st11" d="M896.8,86.7l-18.2,24.9l-12.5-28.2L896.8,86.7z M879.7,102.1l8.5-11.6L874,89L879.7,102.1z"/>
</svg>
