<?xml version="1.0" encoding="utf-8"?>
<!-- Generator: Adobe Illustrator 27.9.0, SVG Export Plug-In . SVG Version: 6.00 Build 0)  -->
<svg version="1.1" id="Layer_1" xmlns="http://www.w3.org/2000/svg" xmlns:xlink="http://www.w3.org/1999/xlink" x="0px" y="0px"
	 width="1178px" height="1102px" viewBox="0 0 1178 1102" style="enable-background:new 0 0 1178 1102;" xml:space="preserve">
<style type="text/css">
	.st0{opacity:0.8;}
	.st1{fill:url(#SVGID_1_);}
	.st2{fill:url(#SVGID_00000005989752031752223530000002769460569186239671_);}
	.st3{fill:url(#SVGID_00000109709050467764612570000002833017425392365759_);}
	.st4{fill:url(#SVGID_00000179641368841116753470000005454050429564085183_);}
	.st5{fill:url(#SVGID_00000096028276385084338330000011565498650971352222_);}
	.st6{fill:url(#SVGID_00000166674807877739301430000009826540688064563389_);}
	.st7{fill:url(#SVGID_00000130622505733857291830000013966709805854871951_);}
	.st8{fill:url(#SVGID_00000013191390043245967760000009139908635518302647_);}
	.st9{opacity:0.12;fill:url(#SVGID_00000145773115769109229900000003053594399065853337_);enable-background:new    ;}
	.st10{fill:#DA5A6E;}
	.st11{fill:url(#SVGID_00000168108018195288013190000001545919668544099246_);}
	.st12{fill:url(#SVGID_00000111180018127654556830000004596587641701622683_);}
	.st13{fill:#5B0075;}
	.st14{fill:url(#SVGID_00000056399558539893250600000006716094606894077339_);}
</style>
<g class="st0">
	
		<linearGradient id="SVGID_1_" gradientUnits="userSpaceOnUse" x1="868.7749" y1="-24.235" x2="924.6249" y2="-24.235" gradientTransform="matrix(1 0 0 1 0 2)">
		<stop  offset="0" style="stop-color:#43035A"/>
		<stop  offset="0.3819" style="stop-color:#4C0269"/>
		<stop  offset="1" style="stop-color:#59007E"/>
	</linearGradient>
	<path class="st1" d="M869.5,5.4L869,4.9c-0.3-0.3-0.3-0.7,0-0.9l54-54c0.3-0.3,0.7-0.3,0.9,0l0.5,0.5c0.3,0.3,0.3,0.7,0,0.9l-54,54
		C870.2,5.8,869.8,5.8,869.5,5.4z"/>
	
		<linearGradient id="SVGID_00000150803802918546955730000002332468245833148861_" gradientUnits="userSpaceOnUse" x1="866.4749" y1="8.365" x2="922.325" y2="8.365" gradientTransform="matrix(1 0 0 1 0 2)">
		<stop  offset="0" style="stop-color:#43035A"/>
		<stop  offset="0.3819" style="stop-color:#4C0269"/>
		<stop  offset="1" style="stop-color:#59007E"/>
	</linearGradient>
	<path style="fill:url(#SVGID_00000150803802918546955730000002332468245833148861_);" d="M867.2,38l-0.5-0.5
		c-0.3-0.3-0.3-0.7,0-0.9l54-54c0.3-0.3,0.7-0.3,0.9,0l0.5,0.5c0.3,0.3,0.3,0.7,0,0.9l-54,54C867.9,38.4,867.5,38.4,867.2,38z"/>
	
		<linearGradient id="SVGID_00000160877933755460032780000013362411487973827473_" gradientUnits="userSpaceOnUse" x1="495.8749" y1="216.465" x2="551.725" y2="216.465" gradientTransform="matrix(1 0 0 1 0 2)">
		<stop  offset="0" style="stop-color:#43035A"/>
		<stop  offset="0.3819" style="stop-color:#4C0269"/>
		<stop  offset="1" style="stop-color:#59007E"/>
	</linearGradient>
	<path style="fill:url(#SVGID_00000160877933755460032780000013362411487973827473_);" d="M496.6,246.1l-0.5-0.5
		c-0.3-0.3-0.3-0.7,0-0.9l54-54c0.3-0.3,0.7-0.3,0.9,0l0.5,0.5c0.3,0.3,0.3,0.7,0,0.9l-54,54C497.4,246.5,496.9,246.5,496.6,246.1z"
		/>
	
		<linearGradient id="SVGID_00000116218344756629233810000002179195121292735935_" gradientUnits="userSpaceOnUse" x1="814.075" y1="339.465" x2="869.925" y2="339.465" gradientTransform="matrix(1 0 0 1 0 2)">
		<stop  offset="0" style="stop-color:#43035A"/>
		<stop  offset="0.3819" style="stop-color:#4C0269"/>
		<stop  offset="1" style="stop-color:#59007E"/>
	</linearGradient>
	<path style="fill:url(#SVGID_00000116218344756629233810000002179195121292735935_);" d="M814.8,369.1l-0.5-0.5
		c-0.3-0.3-0.3-0.7,0-0.9l54-54c0.3-0.3,0.7-0.3,0.9,0l0.5,0.5c0.3,0.3,0.3,0.7,0,0.9l-54,54C815.6,369.5,815.1,369.5,814.8,369.1z"
		/>
	
		<linearGradient id="SVGID_00000059307802171821112000000007301265568512940939_" gradientUnits="userSpaceOnUse" x1="509.9749" y1="270.4275" x2="565.825" y2="270.4275" gradientTransform="matrix(1 0 0 1 0 2)">
		<stop  offset="0" style="stop-color:#43035A"/>
		<stop  offset="0.3819" style="stop-color:#4C0269"/>
		<stop  offset="1" style="stop-color:#59007E"/>
	</linearGradient>
	<path style="fill:url(#SVGID_00000059307802171821112000000007301265568512940939_);" d="M510.7,300.1l-0.5-0.5
		c-0.3-0.3-0.3-0.7,0-0.9l54-54c0.3-0.3,0.7-0.3,0.9,0l0.5,0.5c0.3,0.3,0.3,0.7,0,0.9l-54,54C511.4,300.4,511,300.4,510.7,300.1z"/>
	
		<linearGradient id="SVGID_00000030471152269952179480000001215852730879509889_" gradientUnits="userSpaceOnUse" x1="708.3749" y1="222.4275" x2="764.225" y2="222.4275" gradientTransform="matrix(1 0 0 1 0 2)">
		<stop  offset="0" style="stop-color:#43035A"/>
		<stop  offset="0.3819" style="stop-color:#4C0269"/>
		<stop  offset="1" style="stop-color:#59007E"/>
	</linearGradient>
	<path style="fill:url(#SVGID_00000030471152269952179480000001215852730879509889_);" d="M709.1,252.1l-0.5-0.5
		c-0.3-0.3-0.3-0.7,0-0.9l54-54c0.3-0.3,0.7-0.3,0.9,0l0.5,0.5c0.3,0.3,0.3,0.7,0,0.9l-54,54C709.8,252.4,709.4,252.4,709.1,252.1z"
		/>
	
		<linearGradient id="SVGID_00000114055129459200245030000018315051277433064838_" gradientUnits="userSpaceOnUse" x1="712.4749" y1="234.5275" x2="768.325" y2="234.5275" gradientTransform="matrix(1 0 0 1 0 2)">
		<stop  offset="0" style="stop-color:#43035A"/>
		<stop  offset="0.3819" style="stop-color:#4C0269"/>
		<stop  offset="1" style="stop-color:#59007E"/>
	</linearGradient>
	<path style="fill:url(#SVGID_00000114055129459200245030000018315051277433064838_);" d="M713.2,264.2l-0.5-0.5
		c-0.3-0.3-0.3-0.7,0-0.9l54-54c0.3-0.3,0.7-0.3,0.9,0l0.5,0.5c0.3,0.3,0.3,0.7,0,0.9l-54,54C713.8,264.5,713.4,264.5,713.2,264.2z"
		/>
	
		<linearGradient id="SVGID_00000131340138118839724200000000301601390005960328_" gradientUnits="userSpaceOnUse" x1="710.9749" y1="32.7275" x2="766.825" y2="32.7275" gradientTransform="matrix(1 0 0 1 0 2)">
		<stop  offset="0" style="stop-color:#43035A"/>
		<stop  offset="0.3819" style="stop-color:#4C0269"/>
		<stop  offset="1" style="stop-color:#59007E"/>
	</linearGradient>
	<path style="fill:url(#SVGID_00000131340138118839724200000000301601390005960328_);" d="M711.7,62.4l-0.5-0.5
		c-0.3-0.3-0.3-0.7,0-0.9l54-54c0.3-0.3,0.7-0.3,0.9,0l0.5,0.5c0.3,0.3,0.3,0.7,0,0.9l-54,54C712.3,62.7,711.9,62.7,711.7,62.4z"/>
</g>
<linearGradient id="SVGID_00000026851437114245926730000007550075192826326423_" gradientUnits="userSpaceOnUse" x1="503.8999" y1="198.8275" x2="724.8999" y2="198.8275" gradientTransform="matrix(1 0 0 1 0 2)">
	<stop  offset="0" style="stop-color:#FFFFFF"/>
	<stop  offset="1" style="stop-color:#211915"/>
</linearGradient>
<circle style="opacity:0.12;fill:url(#SVGID_00000026851437114245926730000007550075192826326423_);enable-background:new    ;" cx="614.4" cy="200.8" r="110.5"/>
<path class="st10" d="M659.7,56.7L659.7,56.7c-0.7-2.2,0.1-4.5,1.9-5.9l0,0c1.9-1.4,4.4-1.4,6.2,0l0,0c1.9,1.4,2.6,3.7,1.9,5.9l0,0
	c-0.7,2.2-2.7,3.6-5,3.6l0,0C662.5,60.4,660.5,59,659.7,56.7z"/>
<linearGradient id="SVGID_00000072983414713897335340000003664555176962118556_" gradientUnits="userSpaceOnUse" x1="517.6999" y1="99.3775" x2="590.3999" y2="99.3775" gradientTransform="matrix(1 0 0 1 0 2)">
	<stop  offset="0" style="stop-color:#AB76E1"/>
	<stop  offset="1" style="stop-color:#95FFFF"/>
</linearGradient>
<polygon style="fill:url(#SVGID_00000072983414713897335340000003664555176962118556_);" points="572.9,65 554,83.9 535.2,65 
	517.7,82.5 536.4,101.4 517.7,120.2 535.2,137.7 554,119 572.9,137.7 590.4,120.2 571.6,101.4 590.4,82.5 "/>
<linearGradient id="SVGID_00000007419407237017238790000008841186152034192776_" gradientUnits="userSpaceOnUse" x1="636.4118" y1="114.2252" x2="843.6218" y2="99.7357" gradientTransform="matrix(1 0 0 1 0 2)">
	<stop  offset="0" style="stop-color:#DA5A6E"/>
	<stop  offset="1" style="stop-color:#AB76E1"/>
</linearGradient>
<path style="fill:url(#SVGID_00000007419407237017238790000008841186152034192776_);" d="M864.9,422.2
	c-70.4-42.2-129.3-102-170.3-172.9C652.4,176.1,630,92.6,630,7.6c0-76,17.2-148.9,51-216.5l2,1c-33.8,67.2-51,139.7-51,215.5
	c0,84.7,22.2,167.8,64.5,240.5c40.9,70.6,99.5,130.1,169.4,172.2L864.9,422.2z"/>
<polygon class="st13" points="822.7,415.9 819.4,435.3 804.2,422.9 "/>
<path class="st13" d="M590.4,460.4l-32.4,9.2l8.2-32.6L590.4,460.4z M565.3,462.1l15.1-4.2L569.2,447L565.3,462.1z"/>
<linearGradient id="SVGID_00000083809776866450271030000006361753342927503807_" gradientUnits="userSpaceOnUse" x1="922.325" y1="150.7275" x2="1065.725" y2="150.7275" gradientTransform="matrix(1 0 0 1 0 2)">
	<stop  offset="0" style="stop-color:#43035A"/>
	<stop  offset="0.3819" style="stop-color:#4C0269"/>
	<stop  offset="1" style="stop-color:#59007E"/>
</linearGradient>
<path style="fill:url(#SVGID_00000083809776866450271030000006361753342927503807_);" d="M924.3,223.8l-1.4-1.4
	c-0.8-0.8-0.8-1.9,0-2.4l138.4-138.4c0.8-0.8,1.9-0.8,2.4,0l1.4,1.4c0.8,0.8,0.8,1.9,0,2.4L926.7,223.8
	C926.1,224.6,925,224.6,924.3,223.8z"/>
</svg>
