<?xml version="1.0" encoding="utf-8"?>
<!-- Generator: Adobe Illustrator 27.9.0, SVG Export Plug-In . SVG Version: 6.00 Build 0)  -->
<svg version="1.1" id="Layer_1" xmlns="http://www.w3.org/2000/svg" xmlns:xlink="http://www.w3.org/1999/xlink" x="0px" y="0px"
	 width="1178px" height="1102px" viewBox="0 0 1178 1102" style="enable-background:new 0 0 1178 1102;" xml:space="preserve">
<style type="text/css">
	.st0{opacity:0.8;}
	.st1{fill:url(#SVGID_1_);}
	.st2{fill:url(#SVGID_00000083771107491633945070000013579653429160465540_);}
	.st3{fill:url(#SVGID_00000145749886351648301480000016883572652788339898_);}
	.st4{fill:url(#SVGID_00000129205392709044314270000008529518361916267399_);}
	.st5{fill:url(#SVGID_00000137123919909265014170000014674181183952722052_);}
	.st6{fill:url(#SVGID_00000172409917864832922990000017163698809908776101_);}
	.st7{fill:url(#SVGID_00000158733892263582170430000015685137929149716377_);}
	.st8{fill:url(#SVGID_00000029745049493026192970000017781930629900852872_);}
	.st9{opacity:0.12;fill:url(#SVGID_00000098929796179485485590000013512056081825721270_);enable-background:new    ;}
	.st10{fill:#92E4FD;}
	.st11{fill:#DA5A6E;}
	.st12{fill:url(#SVGID_00000007390678322617692550000013833408221876479132_);}
	.st13{fill:url(#SVGID_00000176744738815337549230000009521377577955154860_);}
	.st14{fill:#5B0075;}
	.st15{fill:url(#SVGID_00000094586893164076860030000011700555772562843795_);}
	.st16{fill:url(#SVGID_00000152223748253229634240000002331311449406472636_);}
	.st17{fill:url(#SVGID_00000021841751185289796140000002030406711384309402_);}
</style>
<g class="st0">
	
		<linearGradient id="SVGID_1_" gradientUnits="userSpaceOnUse" x1="903.8568" y1="1046.8617" x2="959.7347" y2="1046.8617" gradientTransform="matrix(1 0 0 -1 0 1082)">
		<stop  offset="0" style="stop-color:#43035A"/>
		<stop  offset="0.3819" style="stop-color:#4C0269"/>
		<stop  offset="1" style="stop-color:#59007E"/>
	</linearGradient>
	<path class="st1" d="M904.6,62.8l-0.5-0.5c-0.3-0.3-0.3-0.7,0-0.9l54-54c0.3-0.3,0.7-0.3,0.9,0l0.5,0.5c0.3,0.3,0.3,0.7,0,0.9
		l-54,54C905.3,63.2,904.9,63.2,904.6,62.8z"/>
	
		<linearGradient id="SVGID_00000182524616317092743160000002762440539342017718_" gradientUnits="userSpaceOnUse" x1="901.5654" y1="1014.2621" x2="957.4432" y2="1014.2621" gradientTransform="matrix(1 0 0 -1 0 1082)">
		<stop  offset="0" style="stop-color:#43035A"/>
		<stop  offset="0.3819" style="stop-color:#4C0269"/>
		<stop  offset="1" style="stop-color:#59007E"/>
	</linearGradient>
	<path style="fill:url(#SVGID_00000182524616317092743160000002762440539342017718_);" d="M902.3,95.4l-0.5-0.5
		c-0.3-0.3-0.3-0.7,0-0.9l54-54c0.3-0.3,0.7-0.3,0.9,0l0.5,0.5c0.3,0.3,0.3,0.7,0,0.9l-54,54C903,95.8,902.6,95.8,902.3,95.4z"/>
	
		<linearGradient id="SVGID_00000168118215556290137320000005389109518417884589_" gradientUnits="userSpaceOnUse" x1="530.9916" y1="806.1658" x2="586.8694" y2="806.1658" gradientTransform="matrix(1 0 0 -1 0 1082)">
		<stop  offset="0" style="stop-color:#43035A"/>
		<stop  offset="0.3819" style="stop-color:#4C0269"/>
		<stop  offset="1" style="stop-color:#59007E"/>
	</linearGradient>
	<path style="fill:url(#SVGID_00000168118215556290137320000005389109518417884589_);" d="M531.7,303.5l-0.5-0.5
		c-0.3-0.3-0.3-0.7,0-0.9l54-54c0.3-0.3,0.7-0.3,0.9,0l0.5,0.5c0.3,0.3,0.3,0.7,0,0.9l-54,54C532.5,303.9,532,303.9,531.7,303.5z"/>
	
		<linearGradient id="SVGID_00000110444159444292946080000014730991268280312509_" gradientUnits="userSpaceOnUse" x1="849.1768" y1="683.1619" x2="905.0547" y2="683.1619" gradientTransform="matrix(1 0 0 -1 0 1082)">
		<stop  offset="0" style="stop-color:#43035A"/>
		<stop  offset="0.3819" style="stop-color:#4C0269"/>
		<stop  offset="1" style="stop-color:#59007E"/>
	</linearGradient>
	<path style="fill:url(#SVGID_00000110444159444292946080000014730991268280312509_);" d="M849.9,426.5l-0.5-0.5
		c-0.3-0.3-0.3-0.7,0-0.9l54-54c0.3-0.3,0.7-0.3,0.9,0l0.5,0.5c0.3,0.3,0.3,0.7,0,0.9l-54,54C850.7,426.9,850.2,426.9,849.9,426.5z"
		/>
	
		<linearGradient id="SVGID_00000078749749059621727090000012901566232874123187_" gradientUnits="userSpaceOnUse" x1="545.0522" y1="752.2149" x2="600.93" y2="752.2149" gradientTransform="matrix(1 0 0 -1 0 1082)">
		<stop  offset="0" style="stop-color:#43035A"/>
		<stop  offset="0.3819" style="stop-color:#4C0269"/>
		<stop  offset="1" style="stop-color:#59007E"/>
	</linearGradient>
	<path style="fill:url(#SVGID_00000078749749059621727090000012901566232874123187_);" d="M545.8,357.5l-0.5-0.5
		c-0.3-0.3-0.3-0.7,0-0.9l54-54c0.3-0.3,0.7-0.3,0.9,0l0.5,0.5c0.3,0.3,0.3,0.7,0,0.9l-54,54C546.5,357.8,546.1,357.8,545.8,357.5z"
		/>
	
		<linearGradient id="SVGID_00000052071491977314692120000015742242823193510308_" gradientUnits="userSpaceOnUse" x1="743.4623" y1="800.2291" x2="799.3401" y2="800.2291" gradientTransform="matrix(1 0 0 -1 0 1082)">
		<stop  offset="0" style="stop-color:#43035A"/>
		<stop  offset="0.3819" style="stop-color:#4C0269"/>
		<stop  offset="1" style="stop-color:#59007E"/>
	</linearGradient>
	<path style="fill:url(#SVGID_00000052071491977314692120000015742242823193510308_);" d="M744.2,309.5l-0.5-0.5
		c-0.3-0.3-0.3-0.7,0-0.9l54-54c0.3-0.3,0.7-0.3,0.9,0l0.5,0.5c0.3,0.3,0.3,0.7,0,0.9l-54,54C744.9,309.8,744.5,309.8,744.2,309.5z"
		/>
	
		<linearGradient id="SVGID_00000035526308602236729930000013974429714239375293_" gradientUnits="userSpaceOnUse" x1="747.5242" y1="788.1475" x2="803.4021" y2="788.1475" gradientTransform="matrix(1 0 0 -1 0 1082)">
		<stop  offset="0" style="stop-color:#43035A"/>
		<stop  offset="0.3819" style="stop-color:#4C0269"/>
		<stop  offset="1" style="stop-color:#59007E"/>
	</linearGradient>
	<path style="fill:url(#SVGID_00000035526308602236729930000013974429714239375293_);" d="M748.3,321.6l-0.5-0.5
		c-0.3-0.3-0.3-0.7,0-0.9l54-54c0.3-0.3,0.7-0.3,0.9,0l0.5,0.5c0.3,0.3,0.3,0.7,0,0.9l-54,54C748.9,321.9,748.5,321.9,748.3,321.6z"
		/>
	
		<linearGradient id="SVGID_00000078738763486362971330000015296395464460468132_" gradientUnits="userSpaceOnUse" x1="746.0661" y1="989.8904" x2="801.9439" y2="989.8904" gradientTransform="matrix(1 0 0 -1 0 1082)">
		<stop  offset="0" style="stop-color:#43035A"/>
		<stop  offset="0.3819" style="stop-color:#4C0269"/>
		<stop  offset="1" style="stop-color:#59007E"/>
	</linearGradient>
	<path style="fill:url(#SVGID_00000078738763486362971330000015296395464460468132_);" d="M746.8,119.8l-0.5-0.5
		c-0.3-0.3-0.3-0.7,0-0.9l54-54c0.3-0.3,0.7-0.3,0.9,0l0.5,0.5c0.3,0.3,0.3,0.7,0,0.9l-54,54C747.4,120.1,747,120.1,746.8,119.8z"/>
</g>
<linearGradient id="SVGID_00000159435773060578573780000017153945119362889903_" gradientUnits="userSpaceOnUse" x1="539.0374" y1="823.7675" x2="760.0485" y2="823.7675" gradientTransform="matrix(1 0 0 -1 0 1082)">
	<stop  offset="0" style="stop-color:#FFFFFF"/>
	<stop  offset="1" style="stop-color:#211915"/>
</linearGradient>
<circle style="opacity:0.12;fill:url(#SVGID_00000159435773060578573780000017153945119362889903_);enable-background:new    ;" cx="649.5" cy="258.2" r="110.5"/>
<path class="st10" d="M493.3,627.8c-7.9,0-14.9-5.1-17.4-12.6c-2.5-7.5,0.2-15.7,6.7-20.4c3.1-2.3,6.9-3.4,10.7-3.4
	c3.9,0,7.6,1.2,10.7,3.4c6.5,4.7,9.1,12.9,6.7,20.4C508.2,622.8,501.2,627.8,493.3,627.8z M493.3,592.4c-3.6,0-7.2,1.1-10.1,3.3
	c-6,4.4-8.5,12.2-6.2,19.3c2.3,7.1,8.9,11.9,16.4,11.9c7.5,0,14.1-4.8,16.4-11.9c2.3-7.1-0.2-14.9-6.2-19.3
	C500.5,593.5,497,592.4,493.3,592.4z"/>
<path class="st11" d="M694.8,114.1L694.8,114.1c-0.7-2.2,0.1-4.5,1.9-5.9l0,0c1.9-1.4,4.4-1.4,6.2,0l0,0c1.9,1.4,2.6,3.7,1.9,5.9
	l0,0c-0.7,2.2-2.7,3.6-5,3.6l0,0C697.6,117.8,695.6,116.4,694.8,114.1z"/>
<linearGradient id="SVGID_00000133507016906790821920000001866513845408125614_" gradientUnits="userSpaceOnUse" x1="552.7855" y1="923.233" x2="625.4838" y2="923.233" gradientTransform="matrix(1 0 0 -1 0 1082)">
	<stop  offset="0" style="stop-color:#AB76E1"/>
	<stop  offset="1" style="stop-color:#95FFFF"/>
</linearGradient>
<polygon style="fill:url(#SVGID_00000133507016906790821920000001866513845408125614_);" points="608,122.4 589.1,141.3 
	570.3,122.4 552.8,139.9 571.5,158.8 552.8,177.6 570.3,195.1 589.1,176.4 608,195.1 625.5,177.6 606.7,158.8 625.5,139.9 "/>
<linearGradient id="SVGID_00000129888109114800668920000010733948141005211044_" gradientUnits="userSpaceOnUse" x1="671.4702" y1="908.4218" x2="878.6884" y2="922.9119" gradientTransform="matrix(1 0 0 -1 0 1082)">
	<stop  offset="0" style="stop-color:#DA5A6E"/>
	<stop  offset="1" style="stop-color:#AB76E1"/>
</linearGradient>
<path style="fill:url(#SVGID_00000129888109114800668920000010733948141005211044_);" d="M900,479.6
	c-70.4-42.2-129.3-102-170.3-172.9C687.5,233.5,665.1,150,665.1,65c0-76,17.2-148.9,51-216.5l2,1C684.3-83.3,667.1-10.8,667.1,65
	c0,84.7,22.2,167.8,64.5,240.5c40.9,70.6,99.5,130.1,169.4,172.2L900,479.6z"/>
<polygon class="st14" points="857.8,473.3 854.5,492.7 839.3,480.3 "/>
<path class="st14" d="M535.4,524.1l-32.4,9.2l8.2-32.6L535.4,524.1z M510.3,525.8l15.1-4.2l-11.2-10.9L510.3,525.8z"/>
<linearGradient id="SVGID_00000089555865439087353200000015330808351180059264_" gradientUnits="userSpaceOnUse" x1="586.739" y1="458.3883" x2="730.1569" y2="458.3883" gradientTransform="matrix(1 0 0 -1 0 1082)">
	<stop  offset="0" style="stop-color:#43035A"/>
	<stop  offset="0.3819" style="stop-color:#4C0269"/>
	<stop  offset="1" style="stop-color:#59007E"/>
</linearGradient>
<path style="fill:url(#SVGID_00000089555865439087353200000015330808351180059264_);" d="M588.7,694.7l-1.4-1.4
	c-0.8-0.8-0.8-1.9,0-2.4l138.4-138.4c0.8-0.8,1.9-0.8,2.4,0l1.4,1.4c0.8,0.8,0.8,1.9,0,2.4L591.1,694.7
	C590.6,695.5,589.6,695.5,588.7,694.7z"/>
<linearGradient id="SVGID_00000092441675071306515180000008669758383260793768_" gradientUnits="userSpaceOnUse" x1="994.9119" y1="556.4606" x2="1138.3297" y2="556.4606" gradientTransform="matrix(1 0 0 -1 0 1082)">
	<stop  offset="0" style="stop-color:#43035A"/>
	<stop  offset="0.3819" style="stop-color:#4C0269"/>
	<stop  offset="1" style="stop-color:#59007E"/>
</linearGradient>
<path style="fill:url(#SVGID_00000092441675071306515180000008669758383260793768_);" d="M996.9,596.6l-1.4-1.4
	c-0.8-0.8-0.8-1.9,0-2.4L1134,454.5c0.8-0.8,1.9-0.8,2.4,0l1.4,1.4c0.8,0.8,0.8,1.9,0,2.4L999.3,596.6
	C998.5,597.5,997.4,597.5,996.9,596.6z"/>
<linearGradient id="SVGID_00000106130897850272930930000000581782452322482591_" gradientUnits="userSpaceOnUse" x1="924.0883" y1="918.0775" x2="1067.5062" y2="918.0775" gradientTransform="matrix(1 0 0 -1 0 1082)">
	<stop  offset="0" style="stop-color:#43035A"/>
	<stop  offset="0.3819" style="stop-color:#4C0269"/>
	<stop  offset="1" style="stop-color:#59007E"/>
</linearGradient>
<path style="fill:url(#SVGID_00000106130897850272930930000000581782452322482591_);" d="M926.1,235l-1.4-1.4
	c-0.8-0.8-0.8-1.9,0-2.4l138.4-138.4c0.8-0.8,1.9-0.8,2.4,0l1.4,1.4c0.8,0.8,0.8,1.9,0,2.4L928.5,235
	C927.9,235.8,926.8,235.8,926.1,235z"/>
</svg>
