<?xml version="1.0" encoding="utf-8"?>
<!-- Generator: Adobe Illustrator 27.9.0, SVG Export Plug-In . SVG Version: 6.00 Build 0)  -->
<svg version="1.1" id="Layer_1" xmlns="http://www.w3.org/2000/svg" xmlns:xlink="http://www.w3.org/1999/xlink" x="0px" y="0px"
	 width="1372px" height="1098px" viewBox="0 0 1372 1098" style="enable-background:new 0 0 1372 1098;" xml:space="preserve">
<style type="text/css">
	.st0{fill:url(#SVGID_1_);}
	.st1{fill:url(#SVGID_00000009581831581703120250000007737092978607838080_);}
	.st2{fill:#6F0991;}
	.st3{fill:url(#SVGID_00000111189084999905752130000003950687728803566473_);}
	.st4{fill:url(#SVGID_00000075869613912696724590000002928588765676542111_);}
	.st5{fill:#5B0075;}
</style>
<linearGradient id="SVGID_1_" gradientUnits="userSpaceOnUse" x1="620.4463" y1="1052.6016" x2="798.459" y2="1065.0494" gradientTransform="matrix(0.9021 0.4316 0.4316 -0.9021 -383.9336 675.6666)">
	<stop  offset="0" style="stop-color:#E9B5CD"/>
	<stop  offset="1" style="stop-color:#FFFFFF"/>
</linearGradient>
<path class="st0" d="M770.6-29.6l-4.6,1.6c-17.8,6.3-37.2-3-43.4-20.8l-1.6-4.6c-6.3-17.8-25.8-27.1-43.4-20.8l0,0
	c-17.8,6.3-27.1,25.8-20.8,43.4l1.6,4.6c6.3,17.8-3,37.2-20.8,43.4l-4.6,1.6c-17.8,6.3-27.1,25.8-20.8,43.4l0,0
	c6.3,17.8,25.8,27.1,43.4,20.8l4.6-1.6c17.8-6.3,37.2,3,43.4,20.8l1.6,4.6c6.3,17.8,25.8,27.1,43.4,20.8l0,0
	c17.8-6.3,27.1-25.8,20.8-43.4l-1.6-4.6c-6.3-17.8,3-37.2,20.8-43.4l4.6-1.6C811,28.4,820.3,8.9,814-8.8l0,0
	C807.8-26.6,788.3-35.9,770.6-29.6z"/>
<linearGradient id="SVGID_00000144340198416992025360000004719969392982839183_" gradientUnits="userSpaceOnUse" x1="1751.3646" y1="353.4445" x2="1915.811" y2="364.9437" gradientTransform="matrix(-1 -7.173543e-03 -7.173543e-03 1 1930.8716 287.2613)">
	<stop  offset="0" style="stop-color:#DA5A6E"/>
	<stop  offset="1" style="stop-color:#AB76E1"/>
</linearGradient>
<path style="fill:url(#SVGID_00000144340198416992025360000004719969392982839183_);" d="M-2.5,384.2C53,418,99.4,465.8,131.5,522.4
	c33.1,58.2,50.4,124.7,49.9,191.9c-0.4,60.3-14.4,118-41.8,171.4l-1.6-0.8c27.1-53.1,41.1-110.5,41.5-170.5
	c0.6-67.1-16.7-133.1-49.7-191c-32-56.3-78.2-103.8-133.3-137.5L-2.5,384.2z"/>
<polygon class="st2" points="91.7,289 109.3,277.5 110.6,298.5 "/>
<path class="st2" d="M240.2,558.7l30.8,19L239.2,595L240.2,558.7z M259.8,577.4l-14.3-8.8l-0.4,16.9L259.8,577.4z"/>
<path class="st2" d="M610.2,321.6l61.1,9.6l-39,48.1L610.2,321.6z M660.8,335.2l-42.1-6.6l15.3,39.6L660.8,335.2z"/>
<polygon class="st2" points="765.2,130.6 771.2,120 781.8,125.9 787.3,116 776.6,110.1 782.6,99.5 772.6,93.9 766.7,104.5 756,98.6 
	750.6,108.5 761.2,114.5 755.3,125.1 "/>
<linearGradient id="SVGID_00000118378951804856961310000012526882747113464232_" gradientUnits="userSpaceOnUse" x1="207.9866" y1="665.5422" x2="362.1599" y2="665.5422" gradientTransform="matrix(1 0 0 -1 0 1082)">
	<stop  offset="0" style="stop-color:#43035A"/>
	<stop  offset="0.3819" style="stop-color:#4C0269"/>
	<stop  offset="1" style="stop-color:#59007E"/>
</linearGradient>
<path style="fill:url(#SVGID_00000118378951804856961310000012526882747113464232_);" d="M210.1,492.9l-1.5-1.5
	c-0.9-0.9-0.9-2,0-2.6l148.8-148.8c0.9-0.9,2-0.9,2.6,0l1.5,1.5c0.9,0.9,0.9,2,0,2.6L212.7,492.9
	C212.1,493.7,210.7,493.7,210.1,492.9z"/>
<linearGradient id="SVGID_00000119109241142271057680000006868314233012223158_" gradientUnits="userSpaceOnUse" x1="570.0756" y1="488.8222" x2="724.249" y2="488.8222" gradientTransform="matrix(1 0 0 -1 0 1082)">
	<stop  offset="0" style="stop-color:#43035A"/>
	<stop  offset="0.3819" style="stop-color:#4C0269"/>
	<stop  offset="1" style="stop-color:#59007E"/>
</linearGradient>
<path style="fill:url(#SVGID_00000119109241142271057680000006868314233012223158_);" d="M572.2,669.6l-1.5-1.5
	c-0.9-0.9-0.9-2,0-2.6l148.8-148.8c0.9-0.9,2-0.9,2.6,0l1.5,1.5c0.9,0.9,0.9,2,0,2.6L574.8,669.6
	C574.2,670.5,573.1,670.5,572.2,669.6z"/>
<polygon class="st5" points="416.8,693.2 420.6,704.7 409.1,708.7 412.5,719.3 424.1,715.5 428,727 438.9,723.6 434.9,712 
	446.6,708.2 443,697.4 431.4,701.2 427.5,689.6 "/>
<path class="st5" d="M351.5,807.9L351.5,807.9c4.3,9.1,3.5,19.7-2.1,27.9c-8.7,12.9-26.3,16.3-39.3,7.6c-4.1-2.9-7.6-6.8-9.7-11.3
	c-4.3-9.1-3.5-19.7,2.1-27.9c4.3-6.2,10.6-10.4,18-12c7.4-1.3,14.9,0.1,21.2,4.3C345.9,799.5,349.4,803.3,351.5,807.9z M302.9,830.8
	c1.9,4.1,4.9,7.7,8.7,10.2c11.6,7.9,27.4,4.8,35.3-6.8c4.9-7.4,5.7-17,2-25.1l0,0c-1.9-4.1-4.9-7.7-8.7-10.2
	c-5.6-3.8-12.4-5.2-19-3.9c-6.7,1.3-12.4,5.2-16.2,10.7C299.9,813,299.1,822.6,302.9,830.8z"/>
<polygon class="st5" points="385,126.6 388.8,138.1 377.3,141.9 380.9,152.7 392.4,148.9 396.2,160.4 407.1,156.9 403.3,145.3 
	414.8,141.5 411.2,130.7 399.7,134.5 395.9,123 "/>
<path class="st5" d="M481.5,421.9L481.5,421.9c1.8,3.7,1.5,8.1-0.9,11.4c-3.6,5.3-10.9,6.7-16.1,3.1c-1.7-1.2-3.1-2.8-4-4.7
	c-1.8-3.7-1.5-8.1,0.9-11.4c1.8-2.6,4.4-4.3,7.4-4.9c3-0.6,6.2,0.1,8.7,1.8C479.3,418.5,480.6,420,481.5,421.9z M461.5,431.3
	c0.8,1.7,2,3.1,3.6,4.3c4.8,3.2,11.3,2,14.6-2.8c2-3,2.4-7.1,0.8-10.3l0,0c-0.8-1.7-2-3.1-3.6-4.3c-2.4-1.6-5.2-2.1-7.8-1.6
	c-2.8,0.6-5.2,2.1-6.7,4.4C460.2,424.1,459.9,428.1,461.5,431.3z"/>
<path class="st5" d="M271.4,218.7L271.4,218.7c3.2,6.8,2.6,15-1.6,21.3c-6.7,9.9-20,12.4-29.9,5.7c-3.2-2.1-5.8-5.2-7.5-8.6
	c-3.2-6.8-2.6-15,1.6-21.3c3.2-4.7,8.2-7.9,13.8-9.1c5.6-1,11.4,0.1,16.1,3.2C267.2,212.3,269.8,215.2,271.4,218.7z M234.4,236.3
	c1.5,3.1,3.8,5.8,6.7,7.8c8.8,6,20.9,3.6,26.9-5.2c3.8-5.6,4.4-13,1.5-19l0,0c-1.5-3.1-3.8-5.8-6.7-7.8c-4.3-2.9-9.5-3.9-14.6-3
	c-5.2,1-9.5,3.9-12.4,8.2C232.1,222.7,231.5,230,234.4,236.3z"/>
</svg>
