<?xml version="1.0" encoding="utf-8"?>
<!-- Generator: Adobe Illustrator 28.3.0, SVG Export Plug-In . SVG Version: 6.00 Build 0)  -->
<svg version="1.1" id="Layer_1" xmlns="http://www.w3.org/2000/svg" xmlns:xlink="http://www.w3.org/1999/xlink" x="0px" y="0px"
	 width="1372px" height="1098px" viewBox="0 0 1372 1098" style="enable-background:new 0 0 1372 1098;" xml:space="preserve">
<style type="text/css">
	.st0{fill:url(#SVGID_1_);}
	.st1{fill:url(#SVGID_00000145780538221700571430000010455230148034375359_);}
	.st2{fill:#6F0991;}
	.st3{fill:url(#SVGID_00000142868926645751424330000012629367051737161353_);}
	.st4{fill:url(#SVGID_00000082336958998793200040000000866225900743480223_);}
	.st5{fill:#5B0075;}
</style>
<linearGradient id="SVGID_1_" gradientUnits="userSpaceOnUse" x1="-35.8046" y1="197.6455" x2="114.1892" y2="187.1569" gradientTransform="matrix(-0.9021 0.4316 0.4316 0.9021 753.119 -179.8935)">
	<stop  offset="0" style="stop-color:#E9B5CD"/>
	<stop  offset="1" style="stop-color:#FFFFFF"/>
</linearGradient>
<path class="st0" d="M715.7-19.4L715.7-19.4c-5.3,14.9,2.5,31.4,17.5,36.6l3.9,1.3c15,5.2,22.9,21.6,17.5,36.6l-1.3,3.9
	c-5.3,14.8,2.5,31.3,17.5,36.6l0,0c14.8,5.3,31.3-2.5,36.6-17.5l1.3-3.9c5.2-15,21.6-22.9,36.6-17.5l3.9,1.3
	c14.8,5.3,31.3-2.5,36.6-17.5l0,0c5.3-14.8-2.5-31.3-17.5-36.6l-3.9-1.3c-15-5.2-22.9-21.6-17.5-36.6l1.3-3.9
	c5.3-14.8-2.5-31.3-17.5-36.6l0,0c-14.8-5.3-31.3,2.5-36.6,17.5l-1.3,3.9c-5.2,15-21.6,22.9-36.6,17.5l-3.9-1.3
	C737.4-42.2,721-34.4,715.7-19.4z"/>
<linearGradient id="SVGID_00000178918301882215738520000014449447632939468186_" gradientUnits="userSpaceOnUse" x1="1823.6804" y1="852.4177" x2="1962.416" y2="842.7164" gradientTransform="matrix(1 -7.173543e-03 -7.173543e-03 -1 -564.5886 1383.3029)">
	<stop  offset="0" style="stop-color:#DA5A6E"/>
	<stop  offset="1" style="stop-color:#AB76E1"/>
</linearGradient>
<path style="fill:url(#SVGID_00000178918301882215738520000014449447632939468186_);" d="M1405.1,313.5
	c-46.5,28.4-85.4,68.5-112.4,116c-27.8,48.8-42.4,104.5-41.9,161.1c0.3,50.6,12.1,99,35,143.8l-1.3,0.7
	c-23.1-45-34.9-93.7-35.3-144.5c-0.4-56.7,14.2-112.8,42.1-161.8c27.1-47.7,66.2-88,113-116.5L1405.1,313.5z"/>
<polygon class="st2" points="1308.9,239.8 1310,222.1 1324.9,231.8 "/>
<path class="st2" d="M1200.5,489.8l-26.8-14.6l26-16L1200.5,489.8z M1195.5,481.8l-0.3-14.3l-12.1,7.4L1195.5,481.8z"/>
<path class="st2" d="M869,307.9l-32.9-40.6l51.5-8.1L869,307.9z M867.5,298.6l12.9-33.4l-35.5,5.6L867.5,298.6z"/>
<polygon class="st2" points="765.2,93.6 760.3,84.6 769.2,79.6 764.6,71.2 755.6,76.2 750.6,67.3 742.2,72 747.3,80.9 738.2,85.9 
	742.9,94.2 751.8,89.3 756.9,98.2 "/>
<linearGradient id="SVGID_00000089542199233543674950000015914296639649501581_" gradientUnits="userSpaceOnUse" x1="-414.3708" y1="337.2375" x2="-284.2878" y2="337.2375" gradientTransform="matrix(-1 0 0 1 812.4711 2)">
	<stop  offset="0" style="stop-color:#43035A"/>
	<stop  offset="0.3819" style="stop-color:#4C0269"/>
	<stop  offset="1" style="stop-color:#59007E"/>
</linearGradient>
<path style="fill:url(#SVGID_00000089542199233543674950000015914296639649501581_);" d="M1222.8,403.7l-125.5-125.5
	c-0.8-0.5-0.8-1.4,0-2.2l1.3-1.3c0.5-0.8,1.4-0.8,2.2,0l125.5,125.5c0.8,0.5,0.8,1.4,0,2.2l-1.3,1.3
	C1224.5,404.4,1223.3,404.4,1222.8,403.7z"/>
<linearGradient id="SVGID_00000109006667165562505500000016068438438415408817_" gradientUnits="userSpaceOnUse" x1="-109.0025" y1="486.2849" x2="21.0806" y2="486.2849" gradientTransform="matrix(-1 0 0 1 812.4711 2)">
	<stop  offset="0" style="stop-color:#43035A"/>
	<stop  offset="0.3819" style="stop-color:#4C0269"/>
	<stop  offset="1" style="stop-color:#59007E"/>
</linearGradient>
<path style="fill:url(#SVGID_00000109006667165562505500000016068438438415408817_);" d="M917.4,552.8L792,427.3
	c-0.8-0.5-0.8-1.4,0-2.2l1.3-1.3c0.5-0.8,1.4-0.8,2.2,0l125.5,125.5c0.8,0.5,0.8,1.4,0,2.2l-1.3,1.3
	C918.9,553.5,918,553.5,917.4,552.8z"/>
<polygon class="st5" points="1041.7,569.6 1038.4,579.4 1028.6,576.2 1025.6,585.3 1035.4,588.5 1032.1,598.3 1041.2,601.2 
	1044.5,591.5 1054.3,594.7 1057.2,585.7 1047.5,582.4 1050.7,572.7 "/>
<path class="st5" d="M1114,659.8c5.3-3.5,11.6-4.7,17.9-3.6c6.2,1.3,11.6,4.9,15.2,10.1c4.7,6.9,5.4,15.9,1.8,23.5
	c-1.8,3.8-4.7,7.1-8.2,9.5c-11,7.3-25.8,4.5-33.1-6.4c-4.7-6.9-5.4-15.9-1.8-23.5l0,0C1107.5,665.5,1110.5,662.3,1114,659.8z
	 M1145,667.5c-3.2-4.6-8-7.9-13.7-9c-5.6-1.1-11.3,0.1-16,3.3c-3.2,2.1-5.7,5.1-7.3,8.6l0,0c-3.1,6.8-2.4,14.9,1.7,21.2
	c6.7,9.8,20,12.4,29.8,5.7c3.2-2.1,5.7-5.1,7.3-8.6C1150,681.8,1149.3,673.7,1145,667.5z"/>
<polygon class="st5" points="1068.3,91.8 1065.1,101.5 1055.4,98.3 1052.4,107.4 1062.1,110.6 1058.9,120.4 1068.1,123.3 
	1071.3,113.6 1081,116.8 1084,107.7 1074.3,104.5 1077.5,94.8 "/>
<path class="st5" d="M999.5,339.9c2.1-1.4,4.8-2,7.3-1.5c2.5,0.5,4.7,1.9,6.2,4.1c2,2.8,2.3,6.5,0.8,9.6c-0.8,1.6-1.9,3-3.4,4
	c-4.4,3-10.5,1.9-13.6-2.6c-2-2.8-2.3-6.5-0.8-9.6l0,0C996.9,342.3,998,341,999.5,339.9z M1012.2,343.1c-1.3-1.9-3.3-3.2-5.7-3.7
	c-2.2-0.4-4.6,0-6.6,1.3c-1.3,1-2.4,2.2-3,3.6l0,0c-1.3,2.7-1,6.2,0.7,8.7c2.8,4,8.3,5.1,12.3,2.4c1.3-1,2.4-2.2,3-3.6
	C1014.3,349.1,1014.1,345.7,1012.2,343.1z"/>
<path class="st5" d="M1179.6,165.1c4-2.6,8.9-3.5,13.6-2.7c4.7,1,8.9,3.7,11.6,7.7c3.5,5.3,4,12.2,1.3,18c-1.4,2.9-3.6,5.5-6.3,7.3
	c-8.3,5.7-19.6,3.5-25.2-4.8c-3.5-5.3-4-12.2-1.3-18l0,0C1174.7,169.5,1176.9,167.1,1179.6,165.1z M1203.3,171.3
	c-2.4-3.6-6.1-6.1-10.5-6.9c-4.3-0.8-8.7,0.1-12.3,2.5c-2.4,1.7-4.4,4-5.7,6.6l0,0c-2.4,5.1-1.9,11.3,1.3,16
	c5.1,7.4,15.3,9.4,22.7,4.4c2.4-1.7,4.4-4,5.7-6.6C1207,182,1206.5,175.9,1203.3,171.3z"/>
</svg>
